<?xml version="1.0" encoding="utf-8"?>
<svg xmlns="http://www.w3.org/2000/svg" height="512pt" version="1.1" viewBox="0 0 512 512" width="512pt">
<path d="M 0.00 0.00 L 512.00 0.00 L 512.00 512.00 L 0.00 512.00 L 0.00 0.00 Z" fill="transparent" opacity="1.00" stroke="transparent" stroke-width="0.25"/>
<path d="M 233.05 28.97 C 245.31 27.97 257.63 26.96 269.92 28.13 C 293.14 29.12 316.16 33.88 338.00 41.82 C 383.47 58.91 422.11 92.09 448.18 132.84 C 472.20 170.93 485.71 215.90 484.73 261.05 C 484.96 302.08 472.77 342.54 452.94 378.23 C 449.59 384.36 445.63 390.13 442.17 396.19 C 447.68 400.64 450.93 407.30 456.71 411.48 C 461.52 411.98 466.38 411.69 471.21 411.96 C 473.48 412.62 475.54 414.29 476.07 416.68 C 459.74 416.92 443.37 417.21 427.06 416.45 C 424.72 417.92 422.89 420.02 420.91 421.92 C 408.31 433.60 394.62 444.09 380.11 453.30 C 369.26 459.92 357.78 465.41 346.02 470.21 C 341.08 472.01 336.08 473.65 331.09 475.29 C 330.53 475.42 329.42 475.69 328.87 475.82 C 289.30 487.65 246.78 488.29 206.49 479.76 C 187.73 475.63 169.59 468.97 152.24 460.77 C 136.13 452.98 121.30 442.83 107.26 431.80 C 104.18 429.60 101.84 426.46 98.51 424.59 C 75.83 423.52 53.10 424.72 30.40 424.24 C 31.67 422.32 33.11 420.44 35.18 419.36 C 41.51 415.80 47.43 411.58 53.41 407.47 C 56.96 405.02 60.18 402.05 64.14 400.24 C 69.27 405.19 72.03 411.96 76.77 417.22 C 81.49 417.24 86.20 417.45 90.92 417.21 C 77.08 402.98 64.89 387.05 55.45 369.56 C 42.37 345.53 34.06 319.07 29.68 292.11 C 24.96 261.08 26.79 229.04 35.37 198.82 C 44.37 165.20 60.28 133.26 82.91 106.71 C 107.40 78.37 138.52 55.31 173.89 42.48 C 192.98 35.67 212.89 31.07 233.05 28.97 Z" fill="#020101" opacity="1.00" stroke="#020101" stroke-width="0.25"/>
<path d="M 238.08 34.02 C 266.21 31.70 294.75 34.33 321.90 42.11 C 354.83 52.06 385.29 70.06 409.78 94.22 C 415.19 99.47 420.25 105.07 425.18 110.76 C 454.59 145.70 473.77 189.52 478.07 235.09 C 480.31 258.75 479.49 282.78 474.71 306.09 C 468.31 333.41 457.89 360.06 442.55 383.58 C 435.13 383.96 427.68 383.53 420.26 383.84 C 420.01 380.55 419.59 377.27 418.56 374.13 C 416.80 368.20 415.61 362.01 412.74 356.48 C 410.29 351.61 405.30 349.00 401.00 346.05 C 396.26 342.84 390.66 341.30 385.09 340.31 C 377.78 338.81 370.36 341.00 363.00 340.06 C 357.63 339.23 352.23 340.94 346.89 339.88 C 333.30 337.99 319.54 337.26 306.10 334.40 C 306.53 333.00 306.95 331.08 308.88 331.40 C 332.95 331.35 357.04 331.17 381.12 331.32 C 388.84 327.86 389.27 318.24 387.62 311.05 C 387.95 292.72 387.80 274.34 387.66 256.00 C 387.34 249.94 386.28 242.84 381.05 239.00 C 376.86 235.74 371.26 236.82 366.39 237.26 C 366.42 234.59 366.39 231.90 365.57 229.34 C 357.83 228.55 349.99 229.28 342.22 229.43 C 341.97 228.29 341.83 227.15 341.79 226.00 C 341.77 213.20 341.88 200.40 341.65 187.60 C 341.68 182.02 339.71 176.33 335.64 172.40 C 331.93 168.87 327.56 164.89 322.07 165.25 C 304.37 165.29 286.67 165.12 268.97 165.22 C 267.32 165.10 265.88 165.91 264.48 166.65 C 263.37 168.27 261.48 168.00 260.67 166.24 C 254.02 156.43 246.11 147.17 235.89 140.95 C 233.20 134.87 230.45 128.73 229.29 122.15 C 228.35 117.32 224.85 112.82 219.96 111.58 C 214.21 110.16 208.54 112.73 202.87 113.39 C 200.50 114.02 198.45 112.32 196.39 111.45 C 188.03 106.99 179.02 103.90 170.71 99.36 C 169.52 98.36 168.46 97.16 167.05 96.49 C 164.03 95.12 160.77 97.95 157.86 96.13 C 149.16 91.87 140.08 88.36 131.60 83.68 C 130.99 81.32 130.68 78.90 130.31 76.49 C 128.21 75.80 126.00 75.73 123.82 75.57 C 130.46 70.07 138.07 65.90 145.45 61.51 C 173.69 45.36 205.79 36.73 238.08 34.02 Z" fill="#fcfcfc" opacity="1.00" stroke="#fcfcfc" stroke-width="0.25"/>
<path d="M 111.07 90.15 C 114.62 84.99 120.86 81.61 127.04 81.39 C 126.83 85.00 126.65 88.61 126.46 92.22 C 126.04 89.10 125.80 85.96 125.66 82.81 C 124.20 83.21 122.73 83.56 121.32 84.10 C 121.28 85.88 121.64 87.66 121.38 89.43 C 120.20 91.82 118.28 93.83 117.51 96.42 C 115.98 102.20 114.73 108.07 114.45 114.05 C 113.00 124.70 110.82 135.26 109.90 145.98 C 109.48 150.46 110.52 154.89 110.71 159.35 C 108.37 153.47 109.36 147.05 109.17 140.90 C 111.63 125.92 112.96 110.73 116.09 95.87 C 116.44 92.28 120.63 90.59 120.90 87.11 C 117.45 85.32 113.94 89.67 112.78 92.75 L 112.56 92.73 C 111.69 92.74 110.81 92.71 109.94 92.64 C 110.31 91.81 110.68 90.98 111.07 90.15 Z" fill="#ffdb46" opacity="1.00" stroke="#ffdb46" stroke-width="0.25"/>
<path d="M 127.04 81.39 L 127.06 81.25 C 127.10 84.92 127.54 88.59 127.53 92.26 C 126.72 95.53 127.66 98.76 128.90 101.78 C 126.66 100.30 123.51 97.31 121.12 100.24 C 120.12 103.79 123.05 106.50 125.06 108.99 C 128.18 112.55 130.50 116.70 132.88 120.78 C 129.02 120.99 124.26 120.27 121.50 123.65 C 119.19 126.73 119.32 131.41 121.31 134.62 C 125.53 139.20 131.54 141.60 136.14 145.72 C 137.54 152.72 137.14 159.97 138.16 167.04 C 139.13 173.64 138.91 180.34 139.65 186.96 C 141.35 198.22 140.97 209.65 141.83 220.98 C 141.90 223.01 142.73 224.88 143.54 226.70 C 143.54 227.05 143.54 227.74 143.54 228.09 C 141.42 240.80 145.92 253.49 144.62 266.22 C 142.75 257.28 141.44 248.23 139.55 239.30 C 139.15 237.12 137.29 235.25 134.94 235.65 C 131.23 235.62 129.56 239.30 128.09 242.07 C 125.08 229.19 122.08 216.30 119.86 203.26 C 119.44 202.91 118.59 202.23 118.17 201.88 L 117.87 201.65 C 116.17 189.00 112.84 176.65 110.67 164.08 C 109.19 156.48 106.99 148.60 109.17 140.90 C 109.36 147.05 108.37 153.47 110.71 159.35 C 110.52 154.89 109.48 150.46 109.90 145.98 C 110.82 135.26 113.00 124.70 114.45 114.05 C 114.73 108.07 115.98 102.20 117.51 96.42 C 118.28 93.83 120.20 91.82 121.38 89.43 C 121.64 87.66 121.28 85.88 121.32 84.10 C 122.73 83.56 124.20 83.21 125.66 82.81 C 125.80 85.96 126.04 89.10 126.46 92.22 C 126.65 88.61 126.83 85.00 127.04 81.39 Z" fill="#fecd00" opacity="1.00" stroke="#fecd00" stroke-width="0.25"/>
<path d="M 131.39 86.16 C 131.50 87.82 133.29 88.04 134.49 88.68 C 138.66 90.42 142.67 92.50 146.85 94.23 C 150.33 96.02 154.05 97.36 157.45 99.31 C 157.55 99.67 157.75 100.40 157.85 100.77 C 148.85 97.21 140.19 92.84 131.30 89.02 C 131.32 88.30 131.37 86.87 131.39 86.16 Z" fill="#fdfefe" opacity="1.00" stroke="#fdfefe" stroke-width="0.25"/>
<path d="M 104.80 104.99 C 105.40 99.59 106.92 93.96 111.07 90.15 C 110.68 90.98 110.31 91.81 109.94 92.64 C 110.81 92.71 111.69 92.74 112.56 92.73 C 110.22 106.11 108.74 119.65 106.15 132.99 C 105.43 135.90 104.65 139.37 101.78 140.92 C 101.04 128.84 103.66 116.96 104.80 104.99 Z" fill="#f9cd0f" opacity="1.00" stroke="#f9cd0f" stroke-width="0.25"/>
<path d="M 93.22 103.08 C 96.72 99.61 99.70 95.47 103.92 92.81 C 100.98 99.10 101.03 106.15 99.80 112.86 C 98.96 120.55 96.89 128.16 97.50 135.95 C 97.61 138.50 98.07 141.11 97.46 143.64 C 95.48 146.73 91.59 148.90 91.40 152.91 C 90.89 156.06 92.50 159.25 95.31 160.74 C 98.21 187.49 100.54 214.30 102.83 241.11 C 102.45 241.52 101.69 242.33 101.31 242.74 C 101.45 245.92 101.63 249.14 102.67 252.18 C 103.77 253.34 105.42 253.16 106.88 253.36 C 108.07 268.32 109.96 283.22 110.84 298.20 C 106.71 298.60 103.11 301.44 101.31 305.09 C 99.83 308.18 100.41 312.39 103.29 314.48 C 107.79 318.03 110.95 322.86 114.85 327.00 C 115.89 328.30 117.30 329.39 117.91 330.99 C 113.11 335.11 111.07 341.16 109.32 347.03 C 115.80 359.43 123.18 371.36 129.49 383.87 C 110.10 383.65 90.70 383.87 71.31 383.82 C 50.43 353.80 38.15 318.19 33.84 282.00 C 31.06 255.60 32.78 228.64 39.74 202.99 C 49.13 166.04 66.99 130.93 93.22 103.08 Z" fill="#fcfcfc" opacity="1.00" stroke="#fcfcfc" stroke-width="0.25"/>
<path d="M 128.90 101.78 C 127.66 98.76 126.72 95.53 127.53 92.26 C 129.50 97.65 130.68 103.29 131.81 108.90 C 129.29 106.06 126.94 103.08 124.45 100.22 C 122.97 100.52 121.93 101.32 122.31 103.01 C 127.25 108.78 131.95 114.82 135.53 121.54 C 135.27 121.71 134.75 122.04 134.49 122.21 C 130.54 122.52 125.78 121.46 122.65 124.52 C 120.33 127.79 121.07 133.16 124.56 135.37 C 128.29 137.99 132.02 140.62 135.81 143.16 C 136.72 143.90 138.19 144.46 138.15 145.87 C 139.65 166.25 141.36 186.61 142.55 207.01 C 142.92 213.57 143.89 220.12 143.54 226.70 C 142.73 224.88 141.90 223.01 141.83 220.98 C 140.97 209.65 141.35 198.22 139.65 186.96 C 138.91 180.34 139.13 173.64 138.16 167.04 C 137.14 159.97 137.54 152.72 136.14 145.72 C 131.54 141.60 125.53 139.20 121.31 134.62 C 119.32 131.41 119.19 126.73 121.50 123.65 C 124.26 120.27 129.02 120.99 132.88 120.78 C 130.50 116.70 128.18 112.55 125.06 108.99 C 123.05 106.50 120.12 103.79 121.12 100.24 C 123.51 97.31 126.66 100.30 128.90 101.78 Z" fill="#f7d434" opacity="1.00" stroke="#f7d434" stroke-width="0.25"/>
<path d="M 131.12 93.17 C 139.74 96.45 147.92 100.71 156.32 104.50 C 157.16 106.79 157.39 109.29 158.58 111.46 C 161.75 113.46 165.75 113.14 168.87 115.21 C 177.21 119.83 185.84 123.91 194.12 128.65 C 183.00 128.65 171.98 126.96 160.94 125.86 C 157.81 126.01 156.12 122.46 153.01 122.62 C 148.80 122.32 144.51 122.53 140.42 121.32 C 137.69 119.74 137.22 116.24 136.25 113.51 C 134.63 106.71 131.96 100.14 131.12 93.17 Z" fill="#fdfdfd" opacity="1.00" stroke="#fdfdfd" stroke-width="0.25"/>
<path d="M 171.45 105.01 C 175.87 107.09 180.52 108.74 184.69 111.31 C 180.32 110.98 176.59 108.32 172.23 107.93 C 172.26 108.51 172.33 109.66 172.37 110.24 C 175.05 111.29 178.17 112.14 179.48 115.01 C 176.34 113.81 173.47 111.96 170.21 111.06 C 170.52 109.02 170.95 107.01 171.45 105.01 Z" fill="#f7d434" opacity="1.00" stroke="#f7d434" stroke-width="0.25"/>
<path d="M 172.23 107.93 C 176.59 108.32 180.32 110.98 184.69 111.31 C 186.68 111.74 188.45 112.78 190.29 113.62 C 199.72 118.24 209.23 122.68 218.88 126.84 C 217.29 127.66 215.81 128.89 213.99 129.10 C 210.86 128.66 208.08 127.07 205.29 125.71 C 199.95 122.94 194.32 120.78 189.02 117.95 C 186.30 116.58 183.48 114.76 180.29 115.41 C 180.16 115.42 179.91 115.44 179.78 115.45 L 179.48 115.01 C 178.17 112.14 175.05 111.29 172.37 110.24 C 172.33 109.66 172.26 108.51 172.23 107.93 Z" fill="#fcd304" opacity="1.00" stroke="#fcd304" stroke-width="0.25"/>
<path d="M 180.29 115.41 C 183.48 114.76 186.30 116.58 189.02 117.95 C 194.32 120.78 199.95 122.94 205.29 125.71 C 208.08 127.07 210.86 128.66 213.99 129.10 C 215.81 128.89 217.29 127.66 218.88 126.84 C 219.88 127.39 220.89 127.95 221.90 128.52 C 218.95 129.32 216.05 130.99 212.95 130.73 C 202.00 125.78 190.77 121.32 180.29 115.41 Z" fill="#f7d434" opacity="1.00" stroke="#f7d434" stroke-width="0.25"/>
<path d="M 206.73 116.64 C 212.70 115.84 220.63 113.32 224.53 119.67 C 220.48 118.30 216.48 115.84 212.04 117.06 C 213.57 118.12 215.10 119.16 216.63 120.23 C 215.96 120.15 214.63 120.00 213.96 119.92 C 211.36 119.34 208.95 118.09 206.73 116.64 Z" fill="#f7d434" opacity="1.00" stroke="#f7d434" stroke-width="0.25"/>
<path d="M 212.04 117.06 C 216.48 115.84 220.48 118.30 224.53 119.67 L 224.44 119.76 C 224.12 120.10 223.48 120.78 223.17 121.12 C 222.34 121.57 221.51 122.00 220.67 122.42 L 220.25 122.62 C 218.17 121.68 216.04 120.85 213.96 119.92 C 214.63 120.00 215.96 120.15 216.63 120.23 C 215.10 119.16 213.57 118.12 212.04 117.06 Z" fill="#f9d005" opacity="1.00" stroke="#f9d005" stroke-width="0.25"/>
<path d="M 224.44 119.76 C 225.42 121.64 226.23 123.61 226.63 125.71 C 224.67 124.55 222.69 123.44 220.67 122.42 C 221.51 122.00 222.34 121.57 223.17 121.12 C 223.48 120.78 224.12 120.10 224.44 119.76 Z" fill="#f7d434" opacity="1.00" stroke="#f7d434" stroke-width="0.25"/>
<path d="M 125.49 126.40 C 129.49 125.55 133.62 125.50 137.68 125.96 C 136.99 126.93 136.33 127.92 135.70 128.92 C 149.79 130.16 163.94 130.61 178.00 132.09 C 187.64 133.06 197.29 133.74 206.94 134.61 C 210.35 134.94 213.61 136.10 216.70 137.53 C 208.47 136.52 200.37 134.24 192.00 134.57 C 185.24 134.88 178.72 132.69 171.99 132.58 C 160.93 132.63 150.01 130.24 138.93 130.58 C 136.30 131.14 135.36 128.45 133.88 126.93 C 131.36 126.36 127.99 125.93 126.18 128.22 C 126.29 130.06 128.24 130.72 129.63 131.45 C 134.27 133.45 139.12 135.04 143.48 137.67 C 156.08 145.11 169.13 151.76 181.60 159.41 C 196.45 166.83 210.47 175.81 225.33 183.19 C 225.26 180.41 225.89 177.27 224.11 174.88 C 222.19 172.74 219.38 171.56 217.72 169.16 C 219.91 170.12 222.09 171.12 224.35 171.94 C 226.04 176.70 226.96 181.70 227.75 186.68 C 220.28 182.48 212.80 178.29 205.41 173.94 C 202.36 171.85 199.08 170.12 195.70 168.64 C 181.61 161.04 167.78 152.96 153.82 145.12 C 149.87 142.91 145.74 140.97 142.05 138.32 C 140.66 137.22 139.08 136.40 137.36 135.98 C 133.40 134.65 129.39 133.30 125.78 131.18 C 124.10 130.01 125.40 128.00 125.49 126.40 Z" fill="#e9d157" opacity="1.00" stroke="#e9d157" stroke-width="0.25"/>
<path d="M 141.47 126.16 C 142.71 125.31 143.44 125.54 143.66 126.87 C 142.41 127.72 141.68 127.48 141.47 126.16 Z" fill="#737576" opacity="1.00" stroke="#737576" stroke-width="0.25"/>
<path d="M 126.18 128.22 C 127.99 125.93 131.36 126.36 133.88 126.93 C 135.36 128.45 136.30 131.14 138.93 130.58 C 150.01 130.24 160.93 132.63 171.99 132.58 C 178.72 132.69 185.24 134.88 192.00 134.57 C 200.37 134.24 208.47 136.52 216.70 137.53 C 220.99 138.25 224.75 140.65 228.75 142.23 C 241.61 147.43 250.41 158.83 258.19 169.81 C 260.08 172.03 257.10 174.11 255.59 175.51 C 254.99 175.76 253.77 176.25 253.16 176.49 C 248.86 183.99 249.06 192.91 248.65 201.28 C 244.79 199.09 244.55 194.40 243.65 190.54 C 242.26 182.49 239.96 174.64 238.25 166.66 C 236.95 161.72 235.28 155.96 230.16 153.72 C 226.68 151.00 221.60 150.23 218.01 153.18 C 213.12 157.13 213.65 164.79 217.72 169.16 C 219.38 171.56 222.19 172.74 224.11 174.88 C 225.89 177.27 225.26 180.41 225.33 183.19 C 210.47 175.81 196.45 166.83 181.60 159.41 C 169.13 151.76 156.08 145.11 143.48 137.67 C 139.12 135.04 134.27 133.45 129.63 131.45 C 128.24 130.72 126.29 130.06 126.18 128.22 Z" fill="#fecd00" opacity="1.00" stroke="#fecd00" stroke-width="0.25"/>
<path d="M 219.26 132.48 C 221.49 132.34 223.72 132.23 225.95 132.30 C 227.62 132.74 228.18 134.71 229.09 135.98 C 228.63 135.76 227.71 135.30 227.25 135.07 C 227.50 135.96 227.75 136.85 228.04 137.73 C 225.49 136.55 222.88 135.47 220.16 134.73 C 223.09 134.59 221.19 132.54 219.38 132.52 L 219.26 132.48 Z" fill="#fee01e" opacity="1.00" stroke="#fee01e" stroke-width="0.25"/>
<path d="M 217.53 133.57 C 217.99 133.31 218.92 132.78 219.38 132.52 C 221.19 132.54 223.09 134.59 220.16 134.73 C 218.85 134.93 217.98 134.54 217.53 133.57 Z" fill="#f6f6f4" opacity="1.00" stroke="#f6f6f4" stroke-width="0.25"/>
<path d="M 228.04 137.73 C 227.75 136.85 227.50 135.96 227.25 135.07 C 227.71 135.30 228.63 135.76 229.09 135.98 C 230.28 136.52 230.50 138.00 231.16 139.00 C 230.00 138.82 228.96 138.39 228.04 137.73 Z" fill="#b5ab47" opacity="1.00" stroke="#b5ab47" stroke-width="0.25"/>
<path d="M 137.36 135.98 C 139.08 136.40 140.66 137.22 142.05 138.32 C 140.47 139.67 136.78 138.19 137.36 135.98 Z" fill="#573e05" opacity="1.00" stroke="#573e05" stroke-width="0.25"/>
<path d="M 142.02 144.13 C 144.85 146.04 147.79 147.78 150.80 149.40 C 169.83 159.83 188.57 170.77 207.47 181.42 C 208.43 183.43 208.21 185.78 208.66 187.93 C 211.33 203.79 215.04 219.47 217.50 235.37 C 213.86 235.27 210.20 234.93 206.60 235.60 C 205.72 237.95 205.52 240.46 205.43 242.96 C 204.36 256.66 203.01 270.33 201.99 284.03 C 201.67 289.48 200.61 295.06 201.85 300.46 C 203.17 303.87 204.72 307.32 204.28 311.09 C 199.59 317.28 201.75 326.54 208.05 330.75 C 212.66 331.66 217.37 331.21 222.04 331.31 C 234.02 331.29 246.01 331.35 258.00 331.34 C 260.08 331.19 261.45 333.02 262.96 334.17 C 249.53 339.04 234.91 337.03 220.93 338.56 C 217.60 338.76 214.27 339.95 210.94 339.27 C 205.06 337.80 198.97 338.51 192.98 338.23 C 187.17 337.98 181.74 340.29 176.55 342.60 C 175.97 337.19 175.70 331.73 174.57 326.40 C 169.00 325.18 163.27 324.92 157.62 324.23 C 150.67 276.44 148.53 228.15 144.98 180.04 C 144.21 168.05 143.36 156.07 142.02 144.13 Z" fill="#fcfcfc" opacity="1.00" stroke="#fcfcfc" stroke-width="0.25"/>
<path d="M 220.42 166.59 C 216.43 162.57 218.70 155.57 223.94 153.99 C 224.54 154.23 225.14 154.48 225.75 154.72 C 224.11 155.25 222.48 155.79 220.84 156.32 C 222.19 156.42 223.54 156.52 224.89 156.68 C 223.50 157.18 222.16 157.79 220.91 158.57 C 222.33 160.93 222.77 163.62 222.50 166.33 C 221.98 166.39 220.94 166.53 220.42 166.59 Z" fill="#f2df2e" opacity="1.00" stroke="#f2df2e" stroke-width="0.25"/>
<path d="M 230.16 153.72 C 235.28 155.96 236.95 161.72 238.25 166.66 C 239.96 174.64 242.26 182.49 243.65 190.54 C 244.55 194.40 244.79 199.09 248.65 201.28 C 249.06 192.91 248.86 183.99 253.16 176.49 C 253.77 176.25 254.99 175.76 255.59 175.51 C 250.48 184.47 250.28 195.03 249.30 205.02 C 246.90 202.98 244.49 200.66 243.63 197.53 C 242.35 192.94 241.72 188.20 240.63 183.57 C 238.13 173.33 236.76 162.34 230.16 153.72 Z" fill="#f7d434" opacity="1.00" stroke="#f7d434" stroke-width="0.25"/>
<path d="M 220.84 156.32 C 222.48 155.79 224.11 155.25 225.75 154.72 C 228.91 157.29 230.91 160.87 232.37 164.61 C 231.81 164.91 230.69 165.50 230.13 165.80 C 229.93 168.18 229.71 170.57 229.53 172.96 C 227.11 168.97 229.65 164.38 228.43 160.18 C 227.59 158.72 226.41 157.43 224.89 156.68 C 223.54 156.52 222.19 156.42 220.84 156.32 Z" fill="#f7d434" opacity="1.00" stroke="#f7d434" stroke-width="0.25"/>
<path d="M 99.39 161.03 C 100.19 161.09 101.80 161.22 102.60 161.29 C 103.27 176.87 105.21 192.38 106.29 207.93 C 106.28 209.78 106.19 211.63 106.11 213.48 C 105.69 215.57 105.16 217.64 104.74 219.73 L 104.50 220.59 C 102.95 207.08 102.20 193.49 100.71 179.97 C 100.47 173.64 99.37 167.37 99.39 161.03 Z" fill="#f5d52d" opacity="1.00" stroke="#f5d52d" stroke-width="0.25"/>
<path d="M 230.13 165.80 C 230.69 165.50 231.81 164.91 232.37 164.61 C 236.51 180.35 239.24 196.43 242.80 212.32 C 241.13 212.83 239.47 213.35 237.80 213.85 C 235.22 200.18 231.56 186.70 229.53 172.96 C 229.71 170.57 229.93 168.18 230.13 165.80 Z" fill="#f9cd0e" opacity="1.00" stroke="#f9cd0e" stroke-width="0.25"/>
<path d="M 195.70 168.64 C 199.08 170.12 202.36 171.85 205.41 173.94 C 201.73 173.24 198.31 171.32 195.70 168.64 Z" fill="#5c4906" opacity="1.00" stroke="#5c4906" stroke-width="0.25"/>
<path d="M 264.32 172.31 C 266.78 170.09 270.14 169.31 273.37 169.15 C 271.45 170.70 269.32 171.98 267.41 173.54 C 264.26 176.55 262.23 180.50 260.54 184.46 C 260.60 180.95 262.41 177.93 264.24 175.07 C 263.71 174.97 262.66 174.78 262.14 174.68 C 262.86 173.88 263.57 173.08 264.32 172.31 Z" fill="#ffe94e" opacity="1.00" stroke="#ffe94e" stroke-width="0.25"/>
<path d="M 270.36 175.73 C 273.32 173.45 276.29 170.95 279.88 169.75 C 292.91 169.50 305.96 169.75 319.00 169.71 C 327.43 168.76 335.39 175.64 337.27 183.60 C 337.07 184.09 336.66 185.07 336.45 185.56 C 335.03 179.85 330.93 175.16 325.89 172.29 C 322.85 170.73 319.31 171.12 316.01 171.03 C 304.99 171.22 293.96 170.74 282.94 171.11 C 279.52 171.08 276.72 173.25 273.99 175.02 C 269.24 178.12 266.02 183.37 265.23 188.98 C 262.30 203.11 261.30 217.54 258.66 231.72 C 257.31 238.25 256.86 244.92 255.45 251.44 C 255.15 249.31 254.95 247.16 254.98 245.02 C 256.32 236.66 257.65 228.29 259.00 219.93 C 260.43 209.19 261.81 198.44 263.92 187.81 C 264.80 183.26 267.03 178.97 270.36 175.73 Z" fill="#f7d434" opacity="1.00" stroke="#f7d434" stroke-width="0.25"/>
<path d="M 273.99 175.02 C 276.72 173.25 279.52 171.08 282.94 171.11 C 293.96 170.74 304.99 171.22 316.01 171.03 C 319.31 171.12 322.85 170.73 325.89 172.29 C 330.93 175.16 335.03 179.85 336.45 185.56 C 335.73 187.26 334.88 188.91 334.01 190.54 C 333.36 185.87 332.10 179.83 326.93 178.29 C 319.99 177.02 312.86 177.73 305.85 177.83 L 305.87 179.05 C 311.62 179.08 317.37 178.87 323.12 179.00 C 324.87 178.98 326.53 179.59 328.06 180.41 C 320.75 178.41 313.02 179.49 305.55 179.63 C 305.27 202.78 305.32 225.95 305.49 249.11 C 305.87 249.60 306.62 250.59 307.00 251.09 C 306.57 250.97 305.71 250.74 305.28 250.63 C 304.59 241.10 305.20 231.53 304.98 221.99 C 304.75 207.78 305.48 193.53 304.52 179.35 C 303.13 184.10 303.67 189.08 303.65 193.96 C 303.68 211.30 303.70 228.64 303.61 245.98 C 303.58 248.34 303.80 251.35 306.31 252.42 C 309.82 253.27 313.49 252.91 317.07 253.01 C 320.78 252.89 324.87 253.29 328.12 251.14 C 331.08 249.19 332.62 245.81 333.68 242.55 C 334.14 242.51 335.07 242.45 335.53 242.42 C 335.84 243.42 336.17 244.43 336.52 245.43 C 336.78 245.65 337.31 246.10 337.57 246.32 C 339.81 247.73 342.54 247.24 345.05 247.30 C 345.17 263.86 344.65 280.42 345.05 296.99 C 345.12 299.98 344.82 302.98 344.35 305.94 C 337.27 305.21 330.15 305.77 323.05 305.61 C 303.54 305.46 284.02 305.78 264.51 305.48 C 264.20 294.10 264.35 282.73 264.38 271.35 C 275.95 265.92 287.31 260.02 299.06 254.97 C 302.02 254.00 302.42 250.69 302.36 248.02 C 302.35 228.70 302.32 209.38 302.38 190.07 C 302.33 186.47 302.81 182.78 301.88 179.26 C 299.29 176.77 295.27 177.88 292.02 177.61 C 286.21 177.98 279.91 176.64 274.52 179.42 C 270.97 181.47 267.72 184.81 267.26 189.06 C 265.99 200.72 263.78 212.27 262.88 223.99 C 260.84 238.31 257.62 252.72 259.19 267.27 C 259.41 280.58 259.18 293.90 259.25 307.22 C 257.48 307.23 255.71 307.25 253.95 307.33 C 254.77 305.67 255.17 303.86 255.09 302.01 C 254.94 291.35 255.01 280.69 254.99 270.03 C 254.90 263.80 255.49 257.54 254.44 251.36 C 254.25 249.23 254.67 247.12 254.98 245.02 C 254.95 247.16 255.15 249.31 255.45 251.44 C 256.86 244.92 257.31 238.25 258.66 231.72 C 261.30 217.54 262.30 203.11 265.23 188.98 C 266.02 183.37 269.24 178.12 273.99 175.02 Z" fill="#fece00" opacity="1.00" stroke="#fece00" stroke-width="0.25"/>
<path d="M 256.24 182.93 C 257.63 178.63 260.35 174.61 264.32 172.31 C 263.57 173.08 262.86 173.88 262.14 174.68 C 262.66 174.78 263.71 174.97 264.24 175.07 C 262.41 177.93 260.60 180.95 260.54 184.46 C 258.83 195.51 257.01 206.54 255.50 217.62 C 255.32 218.77 255.18 219.95 254.97 221.10 C 253.59 216.91 252.46 212.50 252.76 208.05 C 253.76 199.66 253.89 191.10 256.24 182.93 Z" fill="#f8d019" opacity="1.00" stroke="#f8d019" stroke-width="0.25"/>
<path d="M 260.54 184.46 C 262.23 180.50 264.26 176.55 267.41 173.54 C 268.15 174.09 269.62 175.18 270.36 175.73 C 267.03 178.97 264.80 183.26 263.92 187.81 C 261.81 198.44 260.43 209.19 259.00 219.93 C 257.84 219.16 256.66 218.38 255.50 217.62 C 257.01 206.54 258.83 195.51 260.54 184.46 Z" fill="#0a0000" opacity="1.00" stroke="#0a0000" stroke-width="0.25"/>
<path d="M 274.52 179.42 C 279.91 176.64 286.21 177.98 292.02 177.61 C 295.27 177.88 299.29 176.77 301.88 179.26 C 302.81 182.78 302.33 186.47 302.38 190.07 C 302.32 209.38 302.35 228.70 302.36 248.02 C 302.42 250.69 302.02 254.00 299.06 254.97 C 287.31 260.02 275.95 265.92 264.38 271.35 C 264.35 282.73 264.20 294.10 264.51 305.48 C 284.02 305.78 303.54 305.46 323.05 305.61 C 330.15 305.77 337.27 305.21 344.35 305.94 C 344.91 306.07 346.03 306.34 346.59 306.48 C 343.47 307.49 340.17 306.68 336.97 306.85 C 320.31 306.99 303.64 306.58 286.99 307.13 C 278.88 307.06 270.77 307.30 262.68 306.88 C 262.56 294.57 262.85 282.25 262.55 269.95 C 273.63 265.55 284.04 259.63 295.07 255.12 C 297.01 254.19 299.50 253.78 300.80 251.92 C 301.40 247.99 300.97 244.00 301.01 240.04 C 301.00 219.88 300.85 199.73 301.08 179.58 C 293.41 178.65 285.54 178.61 277.90 179.72 C 273.67 181.07 270.21 184.69 268.93 188.92 C 266.24 206.95 264.45 225.12 261.58 243.14 C 260.76 248.40 259.86 253.68 260.14 259.03 C 260.03 261.78 260.79 264.81 259.19 267.27 C 257.62 252.72 260.84 238.31 262.88 223.99 C 263.78 212.27 265.99 200.72 267.26 189.06 C 267.72 184.81 270.97 181.47 274.52 179.42 Z" fill="#f7d434" opacity="1.00" stroke="#f7d434" stroke-width="0.25"/>
<path d="M 305.85 177.83 C 312.86 177.73 319.99 177.02 326.93 178.29 C 332.10 179.83 333.36 185.87 334.01 190.54 C 333.37 207.86 334.15 225.22 333.68 242.55 C 332.62 245.81 331.08 249.19 328.12 251.14 C 324.87 253.29 320.78 252.89 317.07 253.01 C 313.49 252.91 309.82 253.27 306.31 252.42 C 303.80 251.35 303.58 248.34 303.61 245.98 C 303.70 228.64 303.68 211.30 303.65 193.96 C 303.67 189.08 303.13 184.10 304.52 179.35 C 305.48 193.53 304.75 207.78 304.98 221.99 C 305.20 231.53 304.59 241.10 305.28 250.63 C 305.71 250.74 306.57 250.97 307.00 251.09 C 312.33 251.42 317.73 251.59 323.05 251.02 C 328.77 250.34 332.43 244.43 332.35 239.00 C 332.34 223.36 332.43 207.72 332.34 192.08 C 332.36 187.83 331.23 183.42 328.06 180.41 C 326.53 179.59 324.87 178.98 323.12 179.00 C 317.37 178.87 311.62 179.08 305.87 179.05 L 305.85 177.83 Z" fill="#f7d434" opacity="1.00" stroke="#f7d434" stroke-width="0.25"/>
<path d="M 277.90 179.72 C 285.54 178.61 293.41 178.65 301.08 179.58 C 300.85 199.73 301.00 219.88 301.01 240.04 C 300.97 244.00 301.40 247.99 300.80 251.92 C 299.50 253.78 297.01 254.19 295.07 255.12 C 296.81 254.15 298.61 253.28 300.22 252.09 C 300.74 250.44 300.59 248.69 300.65 246.99 C 300.49 224.86 300.85 202.72 300.57 180.60 C 300.24 180.34 299.57 179.81 299.23 179.55 C 292.13 179.21 285.00 179.27 277.90 179.72 Z" fill="#f9c400" opacity="1.00" stroke="#f9c400" stroke-width="0.25"/>
<path d="M 305.55 179.63 C 313.02 179.49 320.75 178.41 328.06 180.41 C 331.23 183.42 332.36 187.83 332.34 192.08 C 332.43 207.72 332.34 223.36 332.35 239.00 C 332.43 244.43 328.77 250.34 323.05 251.02 C 317.73 251.59 312.33 251.42 307.00 251.09 C 306.62 250.59 305.87 249.60 305.49 249.11 C 305.32 225.95 305.27 202.78 305.55 179.63 Z" fill="#010105" opacity="1.00" stroke="#010105" stroke-width="0.25"/>
<path d="M 272.10 190.97 C 272.83 187.59 275.67 184.40 279.06 183.55 C 284.97 183.16 290.90 183.39 296.82 183.21 C 296.49 205.38 296.85 227.57 296.57 249.72 C 285.84 255.26 274.99 260.67 263.84 265.35 C 263.36 259.52 263.31 253.62 264.54 247.87 C 267.51 228.97 269.80 209.96 272.10 190.97 Z" fill="#9cd9fc" opacity="1.00" stroke="#9cd9fc" stroke-width="0.25"/>
<path d="M 309.57 183.37 C 315.08 183.31 320.69 182.77 326.14 183.89 L 325.10 184.09 C 323.84 184.19 322.59 184.28 321.34 184.36 C 323.04 185.49 324.72 186.64 326.40 187.80 C 326.33 203.56 326.46 219.32 326.45 235.08 C 326.92 239.57 322.79 242.28 320.36 245.47 C 316.97 246.80 313.00 246.12 309.57 247.59 L 309.45 247.63 C 309.47 226.21 309.59 204.79 309.57 183.37 Z" fill="#97d8fb" opacity="1.00" stroke="#97d8fb" stroke-width="0.25"/>
<path d="M 321.34 184.36 C 322.59 184.28 323.84 184.19 325.10 184.09 C 327.86 184.30 328.80 187.57 328.74 189.92 C 328.71 206.29 328.82 222.66 328.76 239.03 C 328.89 243.31 325.17 246.94 321.12 247.60 C 317.28 247.80 313.42 247.72 309.57 247.59 C 313.00 246.12 316.97 246.80 320.36 245.47 C 322.79 242.28 326.92 239.57 326.45 235.08 C 326.46 219.32 326.33 203.56 326.40 187.80 C 324.72 186.64 323.04 185.49 321.34 184.36 Z" fill="#d3f7ff" opacity="1.00" stroke="#d3f7ff" stroke-width="0.25"/>
<path d="M 337.27 183.60 C 338.08 189.02 337.61 194.52 337.74 199.98 C 337.89 214.67 337.54 229.37 338.11 244.05 C 337.98 244.62 337.70 245.75 337.57 246.32 C 337.31 246.10 336.78 245.65 336.52 245.43 C 336.17 244.43 335.84 243.42 335.53 242.42 C 335.07 242.45 334.14 242.51 333.68 242.55 C 334.15 225.22 333.37 207.86 334.01 190.54 C 334.88 188.91 335.73 187.26 336.45 185.56 C 336.66 185.07 337.07 184.09 337.27 183.60 Z" fill="#faca0e" opacity="1.00" stroke="#faca0e" stroke-width="0.25"/>
<path d="M 218.40 187.14 C 222.04 189.24 226.35 190.56 229.26 193.69 C 232.14 203.58 233.40 213.86 235.54 223.93 C 236.23 227.72 237.27 231.45 237.64 235.29 C 234.26 235.12 230.88 235.11 227.51 235.28 C 223.73 219.40 221.63 203.14 218.40 187.14 Z" fill="#fefefd" opacity="1.00" stroke="#fefefd" stroke-width="0.25"/>
<path d="M 118.17 201.88 C 118.59 202.23 119.44 202.91 119.86 203.26 C 122.08 216.30 125.08 229.19 128.09 242.07 C 129.56 239.30 131.23 235.62 134.94 235.65 C 137.29 235.25 139.15 237.12 139.55 239.30 C 141.44 248.23 142.75 257.28 144.62 266.22 C 145.92 253.49 141.42 240.80 143.54 228.09 L 143.73 227.10 C 145.32 241.34 145.63 255.70 147.28 269.95 C 147.70 276.33 148.41 282.70 148.96 289.08 C 149.03 291.43 148.95 293.79 148.89 296.15 C 148.32 295.11 147.76 294.08 147.19 293.05 C 145.70 292.49 144.17 292.00 142.77 291.24 C 141.40 289.09 141.34 286.42 140.86 283.99 C 139.20 271.37 136.03 259.02 134.58 246.36 C 133.51 245.73 132.44 245.09 131.36 244.47 C 132.52 243.79 133.68 243.10 134.83 242.41 C 137.88 258.70 140.97 274.97 143.93 291.28 C 144.80 291.27 146.54 291.26 147.41 291.26 C 144.75 276.16 141.76 261.13 139.12 246.03 C 138.58 243.27 138.48 240.34 137.20 237.78 C 133.41 235.45 129.69 240.30 130.38 243.91 C 129.86 243.98 128.82 244.14 128.30 244.22 C 129.01 248.31 130.18 252.38 129.75 256.58 C 126.86 247.62 125.65 238.22 123.52 229.07 C 121.73 220.01 119.27 211.06 118.17 201.88 Z" fill="#f7d434" opacity="1.00" stroke="#f7d434" stroke-width="0.25"/>
<path d="M 106.29 207.93 C 107.33 217.03 108.38 226.20 108.22 235.37 C 107.14 228.11 107.01 220.75 106.11 213.48 C 106.19 211.63 106.28 209.78 106.29 207.93 Z" fill="#9c8b1e" opacity="1.00" stroke="#9c8b1e" stroke-width="0.25"/>
<path d="M 104.74 219.73 C 105.16 217.64 105.69 215.57 106.11 213.48 C 107.01 220.75 107.14 228.11 108.22 235.37 C 108.46 237.54 108.58 239.73 108.75 241.92 C 108.18 241.88 107.06 241.79 106.49 241.75 C 106.47 241.42 106.44 240.78 106.42 240.45 C 106.05 233.53 105.08 226.66 104.74 219.73 Z" fill="#e9d544" opacity="1.00" stroke="#e9d544" stroke-width="0.25"/>
<path d="M 248.17 213.96 C 249.43 216.38 250.35 219.01 250.13 221.79 C 247.75 219.83 247.91 216.71 248.17 213.96 Z" fill="#564c2f" opacity="1.00" stroke="#564c2f" stroke-width="0.25"/>
<path d="M 104.50 220.59 L 104.74 219.73 C 105.08 226.66 106.05 233.53 106.42 240.45 C 105.03 236.05 105.31 231.38 104.69 226.86 C 104.54 224.78 103.95 222.64 104.50 220.59 Z" fill="#85731b" opacity="1.00" stroke="#85731b" stroke-width="0.25"/>
<path d="M 115.64 219.85 C 117.48 222.90 117.61 226.57 118.42 229.97 C 122.45 247.61 125.44 265.48 129.39 283.14 C 130.78 289.35 132.63 295.45 133.72 301.72 C 128.55 301.68 123.34 302.15 118.20 301.56 C 116.86 285.36 115.44 269.14 114.31 252.92 C 115.03 252.72 116.45 252.31 117.17 252.11 C 117.65 248.52 119.22 243.34 115.71 240.88 C 115.73 233.87 115.31 226.85 115.64 219.85 Z" fill="#fdfdfd" opacity="1.00" stroke="#fdfdfd" stroke-width="0.25"/>
<path d="M 245.86 224.09 C 248.40 224.95 250.91 225.88 253.44 226.77 C 252.69 237.27 250.20 247.57 249.39 258.05 C 249.32 273.96 249.25 289.88 249.38 305.79 C 248.89 305.79 247.91 305.80 247.41 305.80 C 246.16 302.69 245.36 299.40 245.47 296.03 C 245.30 280.04 244.80 264.02 245.77 248.05 C 246.02 240.07 245.30 232.07 245.86 224.09 Z" fill="#e9ca4b" opacity="1.00" stroke="#e9ca4b" stroke-width="0.25"/>
<path d="M 246.78 226.55 C 248.33 226.83 250.00 226.86 251.43 227.64 C 252.08 233.84 250.30 239.97 249.42 246.06 C 246.05 263.96 249.51 282.24 247.41 300.23 C 246.89 297.51 246.60 294.75 246.61 291.98 C 246.70 277.66 246.61 263.35 246.71 249.03 C 247.47 241.54 246.26 234.05 246.78 226.55 Z" fill="#fccc02" opacity="1.00" stroke="#fccc02" stroke-width="0.25"/>
<path d="M 342.35 232.84 C 344.67 232.85 347.00 232.83 349.33 232.82 C 349.36 234.34 349.38 235.88 349.40 237.41 C 347.02 237.44 344.63 237.42 342.25 237.43 C 342.28 235.90 342.31 234.36 342.35 232.84 Z" fill="#feffff" opacity="1.00" stroke="#feffff" stroke-width="0.25"/>
<path d="M 352.56 233.25 C 355.43 232.89 358.36 232.62 361.22 233.21 C 361.22 234.02 361.23 235.63 361.24 236.44 C 358.52 237.49 355.52 237.12 352.68 237.40 C 352.65 236.36 352.59 234.29 352.56 233.25 Z" fill="#fcfcfc" opacity="1.00" stroke="#fcfcfc" stroke-width="0.25"/>
<path d="M 130.38 243.91 C 129.69 240.30 133.41 235.45 137.20 237.78 C 138.48 240.34 138.58 243.27 139.12 246.03 C 141.76 261.13 144.75 276.16 147.41 291.26 C 146.54 291.26 144.80 291.27 143.93 291.28 C 140.97 274.97 137.88 258.70 134.83 242.41 C 133.68 243.10 132.52 243.79 131.36 244.47 L 130.38 243.91 Z" fill="#070200" opacity="1.00" stroke="#070200" stroke-width="0.25"/>
<path d="M 228.08 238.57 C 231.52 238.65 234.97 238.60 238.42 238.52 C 238.70 241.02 239.31 243.50 239.26 246.04 C 238.75 249.07 237.61 251.96 237.09 254.99 C 235.52 265.35 237.60 275.80 237.22 286.17 C 236.54 284.49 236.23 282.69 235.93 280.91 C 233.36 266.79 230.14 252.78 228.08 238.57 Z" fill="#ffffff" opacity="1.00" stroke="#ffffff" stroke-width="0.25"/>
<path d="M 210.46 238.69 C 213.05 238.72 215.65 238.69 218.25 238.62 C 219.07 242.84 220.06 247.02 220.90 251.23 C 225.05 270.17 228.68 289.22 232.52 308.23 C 225.01 307.83 217.35 309.08 209.97 307.38 C 207.54 302.96 205.34 298.10 205.83 292.93 C 206.75 280.10 208.02 267.31 208.94 254.49 C 209.58 249.23 209.43 243.89 210.46 238.69 Z" fill="#fdfdfd" opacity="1.00" stroke="#fdfdfd" stroke-width="0.25"/>
<path d="M 351.98 247.43 C 352.98 243.91 356.13 240.69 359.99 240.79 C 364.99 240.79 370.01 240.56 375.01 240.92 C 380.10 241.77 382.58 247.33 382.44 252.04 C 382.51 267.00 382.28 281.98 382.30 296.95 C 382.29 300.41 382.39 303.91 381.65 307.32 C 371.23 307.04 360.79 307.05 350.37 307.29 C 349.54 304.25 349.88 301.09 349.85 297.98 C 349.85 284.65 349.72 271.32 349.88 257.99 C 350.13 254.50 350.26 250.83 352.01 247.71 C 352.19 250.21 351.99 252.72 351.66 255.20 C 350.86 260.77 351.43 266.40 351.35 272.00 C 351.29 283.08 351.44 294.16 351.16 305.24 C 360.99 306.04 370.87 305.39 380.72 305.68 C 380.86 289.80 380.73 273.92 381.06 258.04 C 381.01 252.85 381.31 245.90 375.86 243.18 C 371.01 242.09 365.96 242.60 361.03 242.64 C 357.22 242.31 355.16 246.04 351.98 247.43 Z" fill="#f7d434" opacity="1.00" stroke="#f7d434" stroke-width="0.25"/>
<path d="M 351.98 247.43 C 355.16 246.04 357.22 242.31 361.03 242.64 C 365.96 242.60 371.01 242.09 375.86 243.18 C 381.31 245.90 381.01 252.85 381.06 258.04 C 380.73 273.92 380.86 289.80 380.72 305.68 C 370.87 305.39 360.99 306.04 351.16 305.24 C 351.44 294.16 351.29 283.08 351.35 272.00 C 351.43 266.40 350.86 260.77 351.66 255.20 C 351.99 252.72 352.19 250.21 352.01 247.71 L 351.98 247.43 Z" fill="#fecf01" opacity="1.00" stroke="#fecf01" stroke-width="0.25"/>
<path d="M 128.30 244.22 C 128.82 244.14 129.86 243.98 130.38 243.91 L 131.36 244.47 C 132.44 245.09 133.51 245.73 134.58 246.36 C 136.03 259.02 139.20 271.37 140.86 283.99 C 141.34 286.42 141.40 289.09 142.77 291.24 C 144.17 292.00 145.70 292.49 147.19 293.05 C 147.76 294.08 148.32 295.11 148.89 296.15 C 148.95 293.79 149.03 291.43 148.96 289.08 C 149.41 292.47 149.81 295.88 149.86 299.31 C 149.28 301.01 148.64 302.69 148.00 304.37 C 147.53 303.87 146.59 302.88 146.12 302.38 C 143.60 302.24 141.09 302.07 138.59 301.80 C 136.75 286.54 132.23 271.71 129.75 256.58 C 130.18 252.38 129.01 248.31 128.30 244.22 Z" fill="#fdcf02" opacity="1.00" stroke="#fdcf02" stroke-width="0.25"/>
<path d="M 337.57 246.32 C 340.56 245.17 343.83 245.79 346.96 245.64 C 346.02 258.08 346.46 270.56 346.33 283.02 C 346.38 290.84 346.21 298.67 346.59 306.48 C 346.03 306.34 344.91 306.07 344.35 305.94 C 344.82 302.98 345.12 299.98 345.05 296.99 C 344.65 280.42 345.17 263.86 345.05 247.30 C 342.54 247.24 339.81 247.73 337.57 246.32 Z" fill="#f5d333" opacity="1.00" stroke="#f5d333" stroke-width="0.25"/>
<path d="M 254.44 251.36 C 255.49 257.54 254.90 263.80 254.99 270.03 C 255.01 280.69 254.94 291.35 255.09 302.01 C 255.17 303.86 254.77 305.67 253.95 307.33 C 253.02 294.59 253.77 281.77 253.49 269.00 C 253.69 263.13 252.80 257.10 254.44 251.36 Z" fill="#f7d432" opacity="1.00" stroke="#f7d432" stroke-width="0.25"/>
<path d="M 356.15 258.34 C 362.96 258.88 370.10 257.41 376.67 259.63 C 370.76 260.00 364.85 259.69 358.94 259.82 C 357.54 259.88 355.11 259.91 355.49 262.01 C 354.98 264.16 357.37 264.70 358.96 264.69 C 364.66 264.75 370.38 264.52 376.08 264.31 C 376.63 265.58 377.19 266.85 377.77 268.11 C 377.29 269.04 376.83 269.99 376.38 270.94 C 376.60 269.45 376.25 268.31 375.34 267.50 C 369.09 266.30 362.46 267.46 356.07 267.01 C 355.33 265.38 354.43 263.79 354.10 262.02 C 354.04 260.50 355.38 259.49 356.15 258.34 Z" fill="#f7d434" opacity="1.00" stroke="#f7d434" stroke-width="0.25"/>
<path d="M 355.49 262.01 C 355.11 259.91 357.54 259.88 358.94 259.82 C 364.85 259.69 370.76 260.00 376.67 259.63 C 376.52 261.20 376.33 262.76 376.08 264.31 C 370.38 264.52 364.66 264.75 358.96 264.69 C 357.37 264.70 354.98 264.16 355.49 262.01 Z" fill="#604b06" opacity="1.00" stroke="#604b06" stroke-width="0.25"/>
<path d="M 356.78 260.82 C 363.24 260.13 369.86 260.15 376.34 260.85 C 375.55 261.74 375.38 263.61 373.94 263.73 C 368.96 264.20 363.93 264.01 358.93 263.90 C 357.34 264.22 355.26 262.36 356.78 260.82 Z" fill="#040407" opacity="1.00" stroke="#040407" stroke-width="0.25"/>
<path d="M 355.26 268.76 C 357.22 266.56 360.33 267.36 362.93 267.24 C 367.06 267.41 371.23 266.94 375.34 267.50 C 376.25 268.31 376.60 269.45 376.38 270.94 L 375.75 271.24 C 369.45 271.74 363.11 271.32 356.80 271.51 C 356.28 270.59 355.77 269.67 355.26 268.76 Z" fill="#0b0500" opacity="1.00" stroke="#0b0500" stroke-width="0.25"/>
<path d="M 356.80 271.51 C 363.11 271.32 369.45 271.74 375.75 271.24 C 375.84 272.05 376.01 273.68 376.10 274.49 C 369.53 273.44 362.84 274.28 356.23 274.34 C 356.37 273.63 356.66 272.22 356.80 271.51 Z" fill="#ebcf34" opacity="1.00" stroke="#ebcf34" stroke-width="0.25"/>
<path d="M 356.23 274.34 C 362.84 274.28 369.53 273.44 376.10 274.49 L 377.03 274.65 C 376.37 275.98 376.09 278.60 374.01 278.30 C 368.65 278.37 363.28 278.48 357.92 278.28 C 355.62 278.46 356.48 275.71 356.23 274.34 Z" fill="#090407" opacity="1.00" stroke="#090407" stroke-width="0.25"/>
<path d="M 356.74 279.03 C 362.16 278.58 367.61 278.78 373.04 278.61 C 375.43 278.26 377.79 279.95 378.72 282.07 C 378.70 284.22 376.72 285.81 375.80 287.64 C 369.35 288.20 362.78 287.20 356.40 288.52 C 356.44 287.43 356.48 286.33 356.52 285.24 C 363.17 285.03 369.89 285.78 376.48 284.64 C 376.51 283.50 376.55 282.37 376.58 281.24 C 369.96 280.35 363.28 280.98 356.63 280.81 C 356.66 280.36 356.71 279.47 356.74 279.03 Z" fill="#f7d434" opacity="1.00" stroke="#f7d434" stroke-width="0.25"/>
<path d="M 356.52 285.24 C 356.44 283.76 356.50 282.28 356.63 280.81 C 363.28 280.98 369.96 280.35 376.58 281.24 C 376.55 282.37 376.51 283.50 376.48 284.64 C 369.89 285.78 363.17 285.03 356.52 285.24 Z" fill="#0d0600" opacity="1.00" stroke="#0d0600" stroke-width="0.25"/>
<path d="M 356.40 288.52 C 362.78 287.20 369.35 288.20 375.80 287.64 C 376.62 289.17 376.75 290.86 376.38 292.54 C 369.45 292.49 362.51 292.89 355.59 292.42 C 355.39 290.93 355.66 289.63 356.40 288.52 Z" fill="#0e0a00" opacity="1.00" stroke="#0e0a00" stroke-width="0.25"/>
<path d="M 148.00 304.37 C 148.64 302.69 149.28 301.01 149.86 299.31 C 151.50 307.61 152.04 316.09 153.51 324.43 C 151.92 325.34 149.63 326.64 148.09 324.91 C 144.64 321.34 143.88 316.15 142.32 311.62 C 144.62 311.64 146.58 310.53 148.33 309.14 C 147.43 311.13 145.71 312.76 145.17 314.89 C 145.67 318.82 147.44 323.31 151.74 324.28 C 151.63 317.68 150.27 311.19 148.18 304.95 L 148.00 304.37 Z" fill="#f7d434" opacity="1.00" stroke="#f7d434" stroke-width="0.25"/>
<path d="M 108.60 302.58 C 110.51 302.00 112.48 301.57 114.50 301.79 C 112.76 303.47 110.79 305.36 111.19 308.03 C 110.94 312.40 115.77 314.31 119.31 315.01 C 117.55 316.79 115.38 318.01 112.99 318.70 L 112.70 318.81 C 110.00 315.31 106.26 311.82 106.51 307.03 C 106.40 305.27 107.78 303.98 108.60 302.58 Z" fill="#f5d513" opacity="1.00" stroke="#f5d513" stroke-width="0.25"/>
<path d="M 148.18 304.95 C 150.27 311.19 151.63 317.68 151.74 324.28 C 147.44 323.31 145.67 318.82 145.17 314.89 C 145.71 312.76 147.43 311.13 148.33 309.14 C 148.32 307.73 148.27 306.34 148.18 304.95 Z" fill="#fccf00" opacity="1.00" stroke="#fccf00" stroke-width="0.25"/>
<path d="M 239.64 312.93 C 241.54 310.40 244.54 309.96 247.51 310.03 C 247.00 314.72 247.19 319.45 247.42 324.15 C 245.67 323.35 244.11 322.20 242.81 320.79 C 243.52 320.77 244.94 320.74 245.65 320.72 C 245.65 317.56 245.65 314.39 245.64 311.23 C 244.56 311.31 243.47 311.39 242.39 311.47 C 241.71 313.15 241.03 314.83 240.41 316.55 C 240.15 315.34 239.89 314.14 239.64 312.93 Z" fill="#f7d434" opacity="1.00" stroke="#f7d434" stroke-width="0.25"/>
<path d="M 122.02 310.92 C 127.09 310.70 132.17 310.91 137.25 310.69 C 139.12 313.97 140.17 317.63 141.63 321.11 C 134.75 318.62 127.24 316.29 122.02 310.92 Z" fill="#fffefd" opacity="1.00" stroke="#fffefd" stroke-width="0.25"/>
<path d="M 242.39 311.47 C 243.47 311.39 244.56 311.31 245.64 311.23 C 245.65 314.39 245.65 317.56 245.65 320.72 C 244.94 320.74 243.52 320.77 242.81 320.79 C 241.80 319.51 240.95 318.09 240.41 316.55 C 241.03 314.83 241.71 313.15 242.39 311.47 Z" fill="#f9c400" opacity="1.00" stroke="#f9c400" stroke-width="0.25"/>
<path d="M 207.65 313.62 C 208.37 311.93 210.45 311.90 212.01 311.86 C 219.49 311.72 226.98 312.12 234.45 311.63 C 236.22 316.04 237.13 320.87 240.03 324.75 C 229.40 324.64 218.77 324.75 208.13 324.60 C 205.86 321.39 205.55 317.01 207.65 313.62 Z" fill="#fdce02" opacity="1.00" stroke="#fdce02" stroke-width="0.25"/>
<path d="M 251.83 311.66 C 295.51 311.45 339.20 311.61 382.89 311.67 C 383.76 315.92 384.06 320.39 382.38 324.51 C 363.94 324.91 345.48 324.52 327.03 324.66 C 302.87 324.63 278.71 325.00 254.56 324.53 C 250.79 321.18 251.76 316.15 251.83 311.66 Z" fill="#f7d434" opacity="1.00" stroke="#f7d434" stroke-width="0.25"/>
<path d="M 253.16 313.37 C 290.43 312.37 327.74 313.43 365.02 313.00 C 370.35 313.06 375.67 313.04 381.00 313.14 C 382.03 316.32 382.10 319.70 380.83 322.83 C 352.22 323.27 323.59 322.66 294.97 323.12 C 282.32 323.18 269.66 323.33 257.03 322.88 C 252.54 322.32 253.02 316.72 253.16 313.37 Z" fill="#ffcd00" opacity="1.00" stroke="#ffcd00" stroke-width="0.25"/>
<path d="M 119.31 315.01 C 124.44 318.51 128.44 323.43 131.96 328.49 C 128.64 328.57 125.27 328.68 121.99 328.05 C 118.69 325.26 116.01 321.79 112.99 318.70 C 115.38 318.01 117.55 316.79 119.31 315.01 Z" fill="#fefefc" opacity="1.00" stroke="#fefefc" stroke-width="0.25"/>
<path d="M 133.21 323.10 C 137.63 324.09 142.72 324.44 145.82 328.20 C 143.10 330.01 140.33 331.76 137.73 333.75 C 136.30 330.16 135.07 326.49 133.21 323.10 Z" fill="#f9d308" opacity="1.00" stroke="#f9d308" stroke-width="0.25"/>
<path d="M 152.37 330.49 C 154.23 329.52 156.30 329.07 158.39 328.97 C 150.17 334.28 141.32 338.62 133.34 344.34 C 132.36 345.07 131.21 345.50 130.07 345.92 C 130.06 343.24 132.54 341.95 134.51 340.71 C 140.43 337.24 146.24 333.58 152.37 330.49 Z" fill="#f7d434" opacity="1.00" stroke="#f7d434" stroke-width="0.25"/>
<path d="M 155.89 334.72 C 160.71 332.19 165.43 328.09 171.29 329.32 C 165.49 334.43 157.98 337.14 151.46 341.24 C 145.98 343.69 140.84 348.43 134.51 347.89 C 140.72 342.16 148.61 338.82 155.89 334.72 Z" fill="#f2c621" opacity="1.00" stroke="#f2c621" stroke-width="0.25"/>
<path d="M 121.44 333.67 C 125.34 332.83 129.40 333.17 133.35 333.43 C 130.00 335.80 126.21 337.43 122.84 339.77 C 120.33 341.37 118.02 343.43 115.05 344.13 C 116.52 340.33 118.05 336.17 121.44 333.67 Z" fill="#f5c814" opacity="1.00" stroke="#f5c814" stroke-width="0.25"/>
<path d="M 143.29 350.00 C 152.62 344.91 161.69 339.25 171.42 334.96 C 173.74 354.26 175.48 373.66 178.46 392.88 C 169.48 394.22 160.41 394.86 151.44 396.29 C 149.62 396.54 147.77 396.55 145.94 396.55 C 143.74 389.47 140.61 382.72 138.28 375.69 C 139.33 376.56 140.73 377.25 141.23 378.64 C 143.40 383.93 144.36 389.78 147.64 394.57 C 149.26 394.90 150.92 394.94 152.57 395.08 C 152.46 394.62 152.24 393.70 152.13 393.24 C 153.39 393.10 154.64 392.97 155.91 392.83 C 156.07 391.43 156.24 390.04 156.41 388.65 C 156.65 390.30 156.89 391.95 157.13 393.61 C 163.28 393.23 169.57 393.01 175.48 391.13 C 177.01 389.20 175.71 386.50 175.75 384.27 C 173.53 368.70 172.04 353.03 170.28 337.42 C 167.70 337.63 165.63 339.38 163.38 340.46 C 157.71 343.32 152.21 346.49 146.95 350.05 C 145.02 351.23 144.91 353.75 144.27 355.70 C 143.92 353.80 143.61 351.90 143.29 350.00 Z" fill="#f3dd35" opacity="1.00" stroke="#f3dd35" stroke-width="0.25"/>
<path d="M 280.28 335.19 C 283.00 335.14 285.72 335.14 288.44 335.29 C 288.62 338.01 288.97 340.70 289.31 343.40 C 286.65 343.49 283.98 343.50 281.32 343.61 C 280.91 340.81 280.66 337.99 280.28 335.19 Z" fill="#fdfdfd" opacity="1.00" stroke="#fdfdfd" stroke-width="0.25"/>
<path d="M 163.38 340.46 C 165.63 339.38 167.70 337.63 170.28 337.42 C 172.04 353.03 173.53 368.70 175.75 384.27 C 175.71 386.50 177.01 389.20 175.48 391.13 C 169.57 393.01 163.28 393.23 157.13 393.61 C 156.89 391.95 156.65 390.30 156.41 388.65 C 156.24 390.04 156.07 391.43 155.91 392.83 C 154.64 392.97 153.39 393.10 152.13 393.24 C 152.24 393.70 152.46 394.62 152.57 395.08 C 150.92 394.94 149.26 394.90 147.64 394.57 C 144.36 389.78 143.40 383.93 141.23 378.64 C 140.73 377.25 139.33 376.56 138.28 375.69 L 137.91 375.41 C 134.18 367.12 130.63 358.72 127.76 350.10 C 131.94 350.26 136.16 350.43 140.22 351.51 C 141.28 358.92 142.09 366.50 144.59 373.60 C 147.46 379.81 150.49 385.96 152.76 392.43 C 153.43 392.48 154.77 392.57 155.44 392.62 C 155.51 387.83 152.21 383.59 150.65 379.12 C 146.61 371.94 145.15 363.78 144.27 355.70 C 144.91 353.75 145.02 351.23 146.95 350.05 C 152.21 346.49 157.71 343.32 163.38 340.46 Z" fill="#fecf01" opacity="1.00" stroke="#fecf01" stroke-width="0.25"/>
<path d="M 297.35 337.27 C 299.80 337.55 302.22 338.01 304.63 338.52 C 304.36 340.97 303.96 343.41 303.46 345.83 C 300.93 345.70 298.43 345.36 295.95 344.95 C 296.34 342.38 296.84 339.82 297.35 337.27 Z" fill="#ffffff" opacity="1.00" stroke="#ffffff" stroke-width="0.25"/>
<path d="M 263.43 338.83 C 266.23 338.32 269.01 337.63 271.84 337.28 C 272.33 339.67 272.86 342.05 273.41 344.44 C 270.91 345.21 268.33 345.71 265.72 345.90 C 264.93 343.55 264.13 341.20 263.43 338.83 Z" fill="#ffffff" opacity="1.00" stroke="#ffffff" stroke-width="0.25"/>
<path d="M 312.75 340.38 C 314.72 340.46 316.69 340.57 318.67 340.66 C 318.65 343.39 318.28 346.10 317.65 348.75 C 315.28 348.53 312.92 348.17 310.62 347.54 C 311.55 345.23 312.26 342.83 312.75 340.38 Z" fill="#ffffff" opacity="1.00" stroke="#ffffff" stroke-width="0.25"/>
<path d="M 252.23 341.63 C 253.31 341.88 254.62 341.58 255.53 342.35 C 256.68 343.77 256.54 345.71 256.85 347.42 C 255.50 347.80 254.16 348.17 252.81 348.55 C 252.45 346.26 252.10 343.95 252.23 341.63 Z" fill="#ffffff" opacity="1.00" stroke="#ffffff" stroke-width="0.25"/>
<path d="M 183.00 345.10 C 185.80 343.97 188.75 343.26 191.68 342.55 C 192.04 345.36 192.30 348.19 192.34 351.02 C 190.60 351.23 188.86 351.46 187.12 351.65 C 185.77 349.45 184.11 347.43 183.00 345.10 Z" fill="#fdfdff" opacity="1.00" stroke="#fdfdff" stroke-width="0.25"/>
<path d="M 199.21 342.70 C 201.82 343.07 204.43 343.32 207.05 343.61 C 207.30 346.15 207.70 348.67 208.05 351.20 C 205.69 351.08 203.27 351.42 200.95 350.93 C 199.76 348.35 199.41 345.49 199.21 342.70 Z" fill="#ffffff" opacity="1.00" stroke="#ffffff" stroke-width="0.25"/>
<path d="M 245.12 342.47 C 246.67 342.43 248.23 342.40 249.79 342.37 C 250.25 344.59 250.59 346.83 250.80 349.10 C 249.40 349.27 248.01 349.46 246.62 349.65 C 246.03 347.27 245.50 344.88 245.12 342.47 Z" fill="#ffffff" opacity="1.00" stroke="#ffffff" stroke-width="0.25"/>
<path d="M 326.28 342.43 C 328.37 342.47 330.44 342.74 332.52 342.99 C 332.20 345.59 331.72 348.16 331.38 350.76 C 329.37 350.76 327.37 350.69 325.38 350.59 C 325.54 347.86 325.44 345.05 326.28 342.43 Z" fill="#ffffff" opacity="1.00" stroke="#ffffff" stroke-width="0.25"/>
<path d="M 214.62 343.58 C 217.54 343.51 220.45 343.28 223.37 343.19 C 223.07 345.74 222.86 348.30 222.76 350.87 C 220.39 350.84 218.01 350.81 215.65 350.75 C 215.46 348.34 215.30 345.91 214.62 343.58 Z" fill="#ffffff" opacity="1.00" stroke="#ffffff" stroke-width="0.25"/>
<path d="M 230.46 342.64 C 233.03 342.53 235.60 342.49 238.17 342.54 C 238.32 345.20 238.71 347.84 239.36 350.43 C 236.82 350.61 234.29 350.72 231.75 350.78 C 231.35 348.06 230.92 345.35 230.46 342.64 Z" fill="#ffffff" opacity="1.00" stroke="#ffffff" stroke-width="0.25"/>
<path d="M 120.70 347.26 C 121.70 345.57 123.30 344.45 125.15 343.86 C 125.00 346.40 123.18 347.68 120.70 347.26 Z" fill="#92824e" opacity="1.00" stroke="#92824e" stroke-width="0.25"/>
<path d="M 340.06 343.74 C 342.33 343.80 344.60 343.96 346.87 344.16 C 346.61 347.04 346.30 349.92 345.67 352.75 C 343.37 352.65 341.06 352.61 338.81 352.12 C 338.80 349.29 339.72 346.54 340.06 343.74 Z" fill="#fefefe" opacity="1.00" stroke="#fefefe" stroke-width="0.25"/>
<path d="M 371.35 344.47 C 373.87 344.54 376.39 344.49 378.91 344.30 C 378.68 345.89 378.46 347.49 378.23 349.09 C 377.85 350.14 377.49 351.21 377.15 352.28 C 374.67 352.33 372.20 352.31 369.73 352.25 C 370.31 349.66 370.68 347.03 371.35 344.47 Z" fill="#ffffff" opacity="1.00" stroke="#ffffff" stroke-width="0.25"/>
<path d="M 353.57 352.64 C 354.12 349.96 354.55 347.26 354.89 344.54 C 357.83 344.56 360.77 344.61 363.71 344.59 C 362.83 347.25 362.03 349.93 361.33 352.65 C 358.74 352.69 356.15 352.70 353.57 352.64 Z" fill="#ffffff" opacity="1.00" stroke="#ffffff" stroke-width="0.25"/>
<path d="M 386.73 345.37 C 390.35 345.77 393.75 347.09 396.92 348.85 C 394.46 351.33 392.07 354.18 388.89 355.70 C 387.01 355.02 385.41 353.76 383.67 352.83 C 384.38 350.23 385.42 347.72 386.73 345.37 Z" fill="#ffffff" opacity="1.00" stroke="#ffffff" stroke-width="0.25"/>
<path d="M 115.07 347.49 C 115.68 347.51 116.90 347.56 117.51 347.59 C 119.70 349.32 122.06 351.08 123.10 353.79 C 127.17 362.77 132.06 371.37 135.47 380.65 C 136.76 384.20 138.66 387.61 139.00 391.45 C 130.89 378.95 124.54 365.46 117.28 352.48 C 116.40 350.88 115.69 349.20 115.07 347.49 Z" fill="#f5d220" opacity="1.00" stroke="#f5d220" stroke-width="0.25"/>
<path d="M 274.13 347.36 C 282.35 345.53 290.79 346.61 298.97 348.08 C 311.00 349.61 322.79 352.62 334.87 353.81 C 344.18 355.66 353.70 355.57 363.14 355.20 C 369.26 354.55 375.45 354.68 381.53 355.69 C 388.10 356.72 393.26 362.14 395.60 368.15 C 398.31 374.35 398.72 381.61 396.34 387.98 C 394.52 393.23 390.25 397.78 384.84 399.30 C 378.59 400.06 372.22 400.05 365.96 399.46 C 361.05 398.27 355.98 398.89 350.99 398.78 C 308.00 398.78 265.02 398.58 222.03 398.80 C 216.37 398.81 210.70 398.63 205.06 399.13 C 198.00 399.19 190.46 401.06 183.87 397.62 C 189.32 397.86 194.83 398.60 200.21 397.19 C 208.33 395.00 216.78 395.81 225.08 395.76 C 268.72 395.62 312.36 395.68 355.99 395.84 C 360.77 395.85 365.15 398.35 369.98 398.09 C 377.29 397.82 385.98 398.32 391.13 392.04 C 398.37 383.23 396.09 369.43 388.34 361.66 C 385.62 359.59 382.46 358.19 379.04 357.82 C 367.38 356.26 355.63 359.21 343.95 357.66 C 327.89 355.43 311.86 352.89 295.88 350.08 C 288.97 348.75 281.81 348.14 274.86 349.60 C 260.03 352.47 245.04 354.50 230.03 356.15 C 215.98 356.90 201.93 355.85 187.88 355.78 C 188.05 355.24 188.37 354.17 188.53 353.63 C 202.86 353.07 217.20 353.84 231.52 353.41 C 245.89 352.72 259.89 349.17 274.13 347.36 Z" fill="#ffffff" opacity="1.00" stroke="#ffffff" stroke-width="0.25"/>
<path d="M 177.20 348.24 C 180.03 350.74 183.09 353.01 185.52 355.94 C 182.86 357.47 180.71 359.68 178.64 361.91 C 178.50 357.32 177.60 352.80 177.20 348.24 Z" fill="#fefffd" opacity="1.00" stroke="#fefffd" stroke-width="0.25"/>
<path d="M 394.30 360.93 C 397.71 359.39 400.72 357.17 403.90 355.25 C 404.40 355.29 405.39 355.38 405.89 355.43 C 407.53 357.31 409.87 359.34 409.75 362.04 C 406.03 364.09 401.92 365.33 397.86 366.51 C 396.67 364.65 395.47 362.80 394.30 360.93 Z" fill="#ffffff" opacity="1.00" stroke="#ffffff" stroke-width="0.25"/>
<path d="M 259.25 360.27 C 262.07 359.47 264.91 358.00 267.93 358.67 C 272.91 359.50 277.89 360.67 282.99 360.40 C 288.05 360.46 293.05 358.44 298.11 359.61 C 308.09 362.02 317.92 365.10 328.01 367.09 C 326.46 367.54 324.94 368.06 323.41 368.54 C 306.29 368.03 289.16 368.34 272.04 368.26 C 259.39 368.40 246.74 367.99 234.11 368.64 C 232.68 368.61 231.27 368.51 229.86 368.35 C 239.66 365.66 249.55 363.30 259.25 360.27 Z" fill="#f8dd50" opacity="1.00" stroke="#f8dd50" stroke-width="0.25"/>
<path d="M 259.62 361.59 C 266.08 358.52 273.19 361.48 279.93 361.53 C 286.61 362.27 293.24 359.16 299.84 361.21 C 305.72 362.98 311.82 364.25 317.42 366.83 C 295.33 367.90 273.17 367.09 251.05 367.39 C 248.52 367.45 245.98 367.29 243.47 366.96 C 248.43 364.03 254.43 363.99 259.62 361.59 Z" fill="#fec901" opacity="1.00" stroke="#fec901" stroke-width="0.25"/>
<path d="M 180.32 367.03 C 187.41 359.41 200.49 359.24 208.69 365.31 C 214.34 369.25 216.23 377.37 213.28 383.51 C 210.36 388.13 205.35 390.98 200.20 392.46 C 194.38 394.41 188.14 392.64 182.69 390.37 C 182.06 382.58 179.96 374.87 180.32 367.03 Z" fill="#f7d434" opacity="1.00" stroke="#f7d434" stroke-width="0.25"/>
<path d="M 182.02 368.08 C 188.99 360.37 201.58 361.82 209.15 367.88 C 212.13 371.46 214.21 376.56 212.16 381.12 C 210.67 386.47 205.20 388.70 200.54 390.60 C 195.25 392.87 189.23 391.37 184.34 388.81 C 183.10 381.99 181.93 374.98 182.02 368.08 Z" fill="#fecd00" opacity="1.00" stroke="#fecd00" stroke-width="0.25"/>
<path d="M 354.10 368.23 C 359.20 363.80 366.32 361.66 373.00 362.72 C 376.73 363.28 379.96 365.32 383.26 367.02 C 383.33 367.25 383.48 367.71 383.56 367.94 C 385.14 372.83 387.07 377.65 387.75 382.78 C 387.53 385.27 385.53 387.16 383.85 388.84 C 377.51 394.67 367.53 394.95 360.10 391.12 C 356.47 389.19 352.74 386.54 351.40 382.46 C 349.42 377.73 350.16 371.73 354.10 368.23 Z" fill="#fece00" opacity="1.00" stroke="#fece00" stroke-width="0.25"/>
<path d="M 323.41 368.54 C 324.94 368.06 326.46 367.54 328.01 367.09 C 329.70 367.30 331.33 367.76 332.99 368.18 C 332.63 368.38 331.91 368.79 331.55 369.00 C 328.82 369.06 326.11 368.77 323.41 368.54 Z" fill="#bba254" opacity="1.00" stroke="#bba254" stroke-width="0.25"/>
<path d="M 228.10 368.37 C 228.68 368.31 229.27 368.30 229.86 368.35 C 231.27 368.51 232.68 368.61 234.11 368.64 C 246.74 367.99 259.39 368.40 272.04 368.26 C 289.16 368.34 306.29 368.03 323.41 368.54 C 326.11 368.77 328.82 369.06 331.55 369.00 L 330.74 369.44 C 329.92 369.67 328.27 370.15 327.45 370.39 C 321.31 369.64 315.12 369.93 308.95 369.84 C 283.20 369.86 257.45 370.08 231.70 369.64 C 230.49 369.23 229.30 368.77 228.10 368.37 Z" fill="#0d0600" opacity="1.00" stroke="#0d0600" stroke-width="0.25"/>
<path d="M 332.99 368.18 C 334.88 368.55 336.72 369.14 338.51 369.88 C 335.26 369.74 332.07 370.38 328.85 370.67 L 327.45 370.39 C 328.27 370.15 329.92 369.67 330.74 369.44 L 331.55 369.00 C 331.91 368.79 332.63 368.38 332.99 368.18 Z" fill="#aa8718" opacity="1.00" stroke="#aa8718" stroke-width="0.25"/>
<path d="M 221.78 372.01 C 224.03 371.07 226.14 369.84 228.10 368.37 C 229.30 368.77 230.49 369.23 231.70 369.64 C 237.50 372.06 243.89 370.80 249.97 371.04 C 272.32 371.42 294.66 370.93 317.01 371.23 C 320.96 371.31 324.93 371.24 328.85 370.67 C 332.07 370.38 335.26 369.74 338.51 369.88 C 340.52 370.48 342.52 371.16 344.54 371.75 C 344.35 374.72 344.07 377.69 343.63 380.63 C 302.98 380.13 262.31 380.78 221.66 380.33 C 221.65 377.55 221.69 374.78 221.78 372.01 Z" fill="#fecf02" opacity="1.00" stroke="#fecf02" stroke-width="0.25"/>
<path d="M 383.56 367.94 C 388.05 371.25 389.68 377.60 387.75 382.78 C 387.07 377.65 385.14 372.83 383.56 367.94 Z" fill="#eecf36" opacity="1.00" stroke="#eecf36" stroke-width="0.25"/>
<path d="M 231.70 369.64 C 257.45 370.08 283.20 369.86 308.95 369.84 C 315.12 369.93 321.31 369.64 327.45 370.39 L 328.85 370.67 C 324.93 371.24 320.96 371.31 317.01 371.23 C 294.66 370.93 272.32 371.42 249.97 371.04 C 243.89 370.80 237.50 372.06 231.70 369.64 Z" fill="#f7d434" opacity="1.00" stroke="#f7d434" stroke-width="0.25"/>
<path d="M 399.71 372.63 C 404.30 372.64 408.89 372.49 413.48 372.42 C 413.98 375.41 414.49 378.41 414.72 381.44 C 409.89 381.21 405.06 381.34 400.24 381.23 C 400.11 378.36 399.89 375.50 399.71 372.63 Z" fill="#ffffff" opacity="1.00" stroke="#ffffff" stroke-width="0.25"/>
<path d="M 221.66 380.33 C 262.31 380.78 302.98 380.13 343.63 380.63 C 343.87 380.81 344.36 381.17 344.61 381.34 C 309.06 381.34 273.51 381.30 237.96 381.31 C 233.02 381.41 228.03 380.87 223.14 381.72 C 222.88 381.47 222.37 380.97 222.11 380.72 L 221.66 380.33 Z" fill="#0a0000" opacity="1.00" stroke="#0a0000" stroke-width="0.25"/>
<path d="M 221.98 383.14 C 219.76 384.11 219.97 379.98 222.11 380.72 C 222.37 380.97 222.88 381.47 223.14 381.72 C 222.85 382.08 222.27 382.79 221.98 383.14 Z" fill="#f6f6f4" opacity="1.00" stroke="#f6f6f4" stroke-width="0.25"/>
<path d="M 221.98 383.14 C 222.27 382.79 222.85 382.08 223.14 381.72 C 228.03 380.87 233.02 381.41 237.96 381.31 C 273.51 381.30 309.06 381.34 344.61 381.34 C 344.57 382.01 344.48 383.35 344.44 384.01 C 342.77 384.24 341.09 384.50 339.41 384.55 C 327.61 383.78 315.79 384.51 303.98 384.23 C 277.29 384.41 250.59 384.03 223.91 384.43 C 223.43 384.11 222.46 383.46 221.98 383.14 Z" fill="#f0d02f" opacity="1.00" stroke="#f0d02f" stroke-width="0.25"/>
<path d="M 223.91 384.43 C 250.59 384.03 277.29 384.41 303.98 384.23 C 315.79 384.51 327.61 383.78 339.41 384.55 C 332.66 385.88 325.79 384.36 318.98 385.04 C 309.67 385.06 300.36 384.97 291.06 384.87 C 274.39 385.53 257.71 384.71 241.05 385.07 C 235.34 384.66 229.58 385.25 223.91 384.43 Z" fill="#bca23b" opacity="1.00" stroke="#bca23b" stroke-width="0.25"/>
<path d="M 74.34 388.13 C 93.26 387.36 112.26 388.28 131.20 387.67 C 132.30 389.24 133.34 390.85 134.35 392.48 C 134.64 393.00 135.21 394.03 135.49 394.54 C 125.77 397.65 115.58 399.23 106.09 403.11 C 101.54 405.07 96.92 406.94 92.66 409.50 C 85.55 403.30 80.33 395.34 74.34 388.13 Z" fill="#fcfcfc" opacity="1.00" stroke="#fcfcfc" stroke-width="0.25"/>
<path d="M 208.91 392.60 C 212.49 391.12 215.91 388.63 219.90 388.63 C 221.93 388.65 221.23 391.33 221.83 392.65 C 217.52 392.74 213.21 392.78 208.91 392.60 Z" fill="#f1b830" opacity="1.00" stroke="#f1b830" stroke-width="0.25"/>
<path d="M 263.79 392.75 C 264.32 391.05 265.03 388.94 267.10 388.73 C 270.88 388.59 274.90 388.03 278.47 389.58 C 278.50 390.57 278.53 391.56 278.57 392.57 C 273.65 392.90 268.72 392.77 263.79 392.75 Z" fill="#f1c226" opacity="1.00" stroke="#f1c226" stroke-width="0.25"/>
<path d="M 283.47 389.51 C 287.44 388.29 291.68 388.37 295.73 389.13 C 295.81 390.30 295.88 391.48 295.96 392.67 C 291.72 392.69 287.47 392.78 283.23 392.71 C 283.31 391.64 283.39 390.57 283.47 389.51 Z" fill="#efc32a" opacity="1.00" stroke="#efc32a" stroke-width="0.25"/>
<path d="M 302.76 388.86 C 306.39 388.40 310.14 388.42 313.72 389.24 C 313.71 390.39 313.69 391.54 313.68 392.70 C 309.17 392.82 304.65 392.95 300.14 392.67 C 300.42 391.02 300.74 389.10 302.76 388.86 Z" fill="#efc624" opacity="1.00" stroke="#efc624" stroke-width="0.25"/>
<path d="M 320.42 388.70 C 323.96 388.50 327.54 388.47 331.07 388.89 C 331.36 390.11 331.50 391.37 331.70 392.63 C 326.86 392.88 321.99 393.06 317.17 392.51 C 317.94 391.07 318.34 388.72 320.42 388.70 Z" fill="#f5db25" opacity="1.00" stroke="#f5db25" stroke-width="0.25"/>
<path d="M 336.36 389.67 C 341.68 388.53 349.76 386.06 352.39 392.69 C 346.92 392.84 341.46 392.75 335.99 392.80 C 336.11 391.75 336.24 390.71 336.36 389.67 Z" fill="#f5cd25" opacity="1.00" stroke="#f5cd25" stroke-width="0.25"/>
<path d="M 419.18 391.08 C 419.59 389.95 419.29 388.25 420.76 387.84 C 427.18 387.70 433.60 387.77 440.02 387.88 C 434.84 396.48 428.55 404.43 421.84 411.89 C 417.50 416.45 413.22 421.17 408.02 424.78 C 405.08 423.18 402.79 420.47 400.22 418.33 C 392.60 419.56 385.22 421.95 378.22 425.18 C 372.62 427.08 368.18 431.71 362.04 431.97 C 361.75 432.22 361.17 432.73 360.88 432.98 C 360.73 433.12 360.44 433.40 360.29 433.54 L 359.93 433.23 C 358.63 432.79 357.26 433.32 356.00 433.63 C 350.53 435.27 345.11 437.14 339.96 439.63 C 337.52 441.05 334.66 440.50 331.99 440.55 C 319.04 440.50 306.03 439.92 293.16 441.67 C 292.02 441.91 291.05 442.61 290.02 443.15 C 303.67 443.88 317.37 443.28 331.05 443.58 C 334.09 443.47 337.22 443.93 340.20 443.19 C 347.90 440.31 355.61 437.34 363.58 435.33 C 363.70 435.04 363.95 434.47 364.07 434.18 C 364.10 434.59 364.16 435.42 364.18 435.83 C 363.35 436.74 362.53 437.67 361.72 438.61 C 360.53 440.55 359.28 442.46 358.25 444.50 C 355.33 446.39 351.73 444.93 348.56 445.70 C 346.13 446.82 343.85 448.32 342.06 450.33 C 352.79 450.55 363.53 450.29 374.27 450.55 C 356.40 461.65 336.32 468.79 315.94 473.70 C 297.02 478.33 277.47 480.07 258.02 479.84 C 232.26 479.77 206.40 475.91 182.14 467.10 C 172.92 463.79 163.78 460.19 154.95 455.97 C 179.30 455.90 203.66 456.28 228.02 456.13 C 239.68 456.35 251.32 455.54 262.97 456.06 C 265.75 456.05 269.00 456.46 271.01 454.09 C 269.89 452.79 268.77 451.49 267.41 450.45 C 253.87 440.57 239.56 431.60 224.15 424.92 C 220.52 423.45 216.89 421.78 212.93 421.49 C 206.91 425.04 202.50 430.64 196.94 434.78 C 191.61 436.03 186.10 436.67 180.72 437.71 C 176.51 440.78 173.43 445.28 168.80 447.77 C 164.96 448.86 160.78 448.14 157.04 449.67 C 154.89 450.72 152.93 452.11 151.05 453.58 C 141.82 449.77 133.84 443.68 125.55 438.24 C 124.55 437.49 123.60 436.67 122.71 435.80 C 131.56 435.60 140.42 435.84 149.26 435.41 C 148.14 434.28 146.73 433.43 145.11 433.32 C 136.77 432.16 128.32 432.47 119.94 432.81 C 118.06 433.09 116.74 431.56 115.40 430.56 C 108.33 425.00 101.53 419.07 95.46 412.42 C 109.75 404.62 125.84 399.94 142.04 398.48 C 142.63 399.46 143.23 400.45 143.84 401.43 C 149.94 401.12 156.00 400.37 162.08 399.93 C 166.31 405.54 171.64 411.76 179.11 412.42 C 182.56 413.01 185.34 415.78 188.95 415.70 C 250.28 415.56 311.63 415.64 372.98 415.74 C 379.03 415.36 385.41 418.14 391.16 415.30 C 394.74 413.56 398.49 412.11 401.83 409.92 C 406.80 405.90 411.67 401.70 416.09 397.07 C 417.69 395.42 418.79 393.34 419.18 391.08 Z" fill="#fcfcfc" opacity="1.00" stroke="#fcfcfc" stroke-width="0.25"/>
<path d="M 225.36 392.53 C 225.79 391.21 226.23 389.91 226.66 388.60 C 230.57 388.53 234.49 388.58 238.40 388.56 C 238.82 389.92 239.24 391.29 239.68 392.66 C 234.91 392.75 230.12 392.97 225.36 392.53 Z" fill="#f7d434" opacity="1.00" stroke="#f7d434" stroke-width="0.25"/>
<path d="M 244.73 389.49 C 249.15 388.36 253.75 388.77 258.26 388.75 C 259.98 389.25 259.46 391.29 259.86 392.63 C 254.37 392.63 248.87 392.66 243.39 392.44 C 243.84 391.46 244.28 390.47 244.73 389.49 Z" fill="#f2c82a" opacity="1.00" stroke="#f2c82a" stroke-width="0.25"/>
<path d="M 396.58 392.52 C 397.35 391.26 398.11 389.99 398.87 388.72 C 403.86 388.89 408.86 388.79 413.86 388.67 C 412.98 392.45 409.98 395.23 407.31 397.84 C 403.59 396.38 400.32 393.97 396.58 392.52 Z" fill="#ffffff" opacity="1.00" stroke="#ffffff" stroke-width="0.25"/>
<path d="M 227.75 390.74 C 230.80 389.84 234.00 390.06 237.10 390.56 C 234.00 391.03 230.86 391.15 227.75 390.74 Z" fill="#f9c400" opacity="1.00" stroke="#f9c400" stroke-width="0.25"/>
<path d="M 388.36 400.78 C 390.99 399.28 393.36 397.39 395.68 395.47 C 397.93 397.67 400.38 399.66 402.70 401.80 C 399.92 404.24 397.17 406.73 394.05 408.74 C 392.29 406.60 390.40 404.58 388.52 402.54 C 388.48 402.10 388.40 401.22 388.36 400.78 Z" fill="#fefdfd" opacity="1.00" stroke="#fefdfd" stroke-width="0.25"/>
<path d="M 171.10 401.94 C 173.57 400.54 175.99 398.37 179.03 398.65 C 181.16 398.62 183.11 399.62 185.05 400.38 C 183.02 403.13 180.38 405.32 177.78 407.50 C 175.23 406.08 172.98 404.18 171.10 401.94 Z" fill="#fdfefe" opacity="1.00" stroke="#fdfefe" stroke-width="0.25"/>
<path d="M 440.28 398.77 C 440.77 399.12 441.75 399.81 442.24 400.16 C 442.46 401.34 442.70 402.55 442.77 403.76 C 441.09 403.31 440.19 403.97 440.05 405.76 C 441.91 405.74 443.16 404.19 444.95 403.95 C 445.63 406.79 446.97 409.40 447.91 412.15 C 441.97 412.51 436.01 412.24 430.07 412.34 C 433.73 408.01 436.67 403.14 440.28 398.77 Z" fill="#fefefe" opacity="1.00" stroke="#fefefe" stroke-width="0.25"/>
<path d="M 198.35 401.46 C 202.20 401.52 206.06 401.44 209.91 401.52 C 207.25 404.94 205.20 410.59 199.93 409.88 C 198.37 407.33 198.51 404.32 198.35 401.46 Z" fill="#ffffff" opacity="1.00" stroke="#ffffff" stroke-width="0.25"/>
<path d="M 213.09 401.57 C 214.37 401.53 215.65 401.49 216.94 401.45 C 216.82 404.14 216.65 406.84 216.46 409.53 C 216.01 409.49 215.10 409.40 214.65 409.36 C 213.84 406.83 213.34 404.21 213.09 401.57 Z" fill="#ffffff" opacity="1.00" stroke="#ffffff" stroke-width="0.25"/>
<path d="M 227.34 401.59 C 229.00 401.53 230.66 401.51 232.33 401.49 C 232.27 402.74 232.20 404.01 232.14 405.27 C 231.25 405.32 230.36 405.38 229.48 405.44 C 228.76 404.16 228.04 402.87 227.34 401.59 Z" fill="#ffffff" opacity="1.00" stroke="#ffffff" stroke-width="0.25"/>
<path d="M 236.55 401.33 C 240.24 401.36 243.94 401.38 247.64 401.45 C 246.74 404.10 245.92 406.79 245.16 409.49 C 242.38 409.56 239.60 409.58 236.82 409.47 C 236.75 406.75 236.64 404.04 236.55 401.33 Z" fill="#ffffff" opacity="1.00" stroke="#ffffff" stroke-width="0.25"/>
<path d="M 250.27 401.46 C 253.79 401.43 257.31 401.40 260.83 401.42 C 259.96 403.80 259.15 406.20 258.40 408.62 C 256.16 408.62 253.92 408.59 251.68 408.44 C 251.14 406.13 250.63 403.80 250.27 401.46 Z" fill="#ffffff" opacity="1.00" stroke="#ffffff" stroke-width="0.25"/>
<path d="M 263.29 401.49 C 264.43 401.44 265.58 401.40 266.73 401.36 C 266.76 403.17 266.79 404.97 266.82 406.79 C 266.24 406.80 265.07 406.84 264.48 406.85 C 264.09 405.06 263.67 403.28 263.29 401.49 Z" fill="#ffffff" opacity="1.00" stroke="#ffffff" stroke-width="0.25"/>
<path d="M 269.28 401.51 C 271.72 401.51 274.16 401.49 276.61 401.47 C 276.60 404.09 276.58 406.72 276.53 409.34 C 274.14 409.33 271.76 409.38 269.39 409.47 C 269.34 406.81 269.30 404.16 269.28 401.51 Z" fill="#ffffff" opacity="1.00" stroke="#ffffff" stroke-width="0.25"/>
<path d="M 279.18 401.45 C 281.10 401.40 283.03 401.39 284.96 401.41 C 284.35 403.01 283.69 404.59 283.07 406.19 C 282.18 406.22 281.30 406.26 280.41 406.30 C 279.93 404.70 279.52 403.08 279.18 401.45 Z" fill="#ffffff" opacity="1.00" stroke="#ffffff" stroke-width="0.25"/>
<path d="M 288.37 401.33 C 291.14 401.41 293.91 401.48 296.69 401.55 C 296.66 404.14 296.62 406.74 296.56 409.34 C 293.85 409.31 291.14 409.34 288.44 409.25 C 288.66 406.61 288.58 403.96 288.37 401.33 Z" fill="#ffffff" opacity="1.00" stroke="#ffffff" stroke-width="0.25"/>
<path d="M 299.45 401.43 C 301.31 401.34 303.17 401.32 305.04 401.34 C 304.64 403.46 303.82 405.50 301.92 406.69 C 301.05 404.96 300.23 403.20 299.45 401.43 Z" fill="#ffffff" opacity="1.00" stroke="#ffffff" stroke-width="0.25"/>
<path d="M 327.29 401.29 C 329.96 401.30 332.63 401.34 335.31 401.37 C 335.29 404.14 335.34 406.91 335.53 409.68 C 332.84 409.67 330.16 409.66 327.47 409.66 C 327.41 406.87 327.35 404.08 327.29 401.29 Z" fill="#ffffff" opacity="1.00" stroke="#ffffff" stroke-width="0.25"/>
<path d="M 337.21 401.36 C 339.09 401.35 340.98 401.37 342.87 401.40 C 342.92 404.43 340.78 406.54 338.57 408.27 C 337.97 405.99 337.48 403.69 337.21 401.36 Z" fill="#ffffff" opacity="1.00" stroke="#ffffff" stroke-width="0.25"/>
<path d="M 345.88 401.39 C 348.55 401.29 351.24 401.30 353.92 401.34 C 353.85 404.12 353.72 406.90 353.60 409.69 C 352.37 409.61 351.16 409.54 349.95 409.48 C 348.72 406.71 347.02 404.19 345.88 401.39 Z" fill="#ffffff" opacity="1.00" stroke="#ffffff" stroke-width="0.25"/>
<path d="M 188.63 401.43 C 190.84 401.48 193.05 401.53 195.27 401.58 C 195.26 405.17 195.37 408.77 195.01 412.35 C 193.11 412.60 191.23 412.95 189.37 413.38 C 188.69 409.43 188.75 405.42 188.63 401.43 Z" fill="#fdfdfd" opacity="1.00" stroke="#fdfdfd" stroke-width="0.25"/>
<path d="M 219.31 401.41 C 221.29 401.40 223.27 401.41 225.25 401.44 C 225.15 404.10 225.09 406.77 225.03 409.44 C 223.11 409.47 221.20 409.50 219.28 409.52 C 219.29 406.82 219.29 404.11 219.31 401.41 Z" fill="#fcfcfc" opacity="1.00" stroke="#fcfcfc" stroke-width="0.25"/>
<path d="M 308.12 401.41 C 310.49 401.44 312.86 401.48 315.24 401.51 C 315.23 404.22 315.15 406.93 315.14 409.65 C 313.21 409.67 311.28 409.67 309.36 409.67 C 308.83 406.94 308.46 404.17 308.12 401.41 Z" fill="#ffffff" opacity="1.00" stroke="#ffffff" stroke-width="0.25"/>
<path d="M 317.70 401.45 C 319.82 401.42 321.94 401.40 324.07 401.43 C 322.24 404.14 321.44 408.13 318.51 409.84 C 317.51 407.15 317.86 404.24 317.70 401.45 Z" fill="#fefefe" opacity="1.00" stroke="#fefefe" stroke-width="0.25"/>
<path d="M 356.34 401.31 C 358.35 401.36 360.36 401.41 362.37 401.47 C 361.74 404.20 361.46 407.00 360.72 409.70 C 359.27 409.82 357.81 409.76 356.37 409.74 C 356.38 406.93 356.34 404.12 356.34 401.31 Z" fill="#fdfdfd" opacity="1.00" stroke="#fdfdfd" stroke-width="0.25"/>
<path d="M 364.97 401.38 C 368.12 401.39 371.28 401.48 374.43 401.50 C 374.40 404.44 374.14 407.38 373.43 410.25 C 372.77 410.06 371.44 409.68 370.78 409.48 C 368.84 406.78 366.97 404.03 364.97 401.38 Z" fill="#ffffff" opacity="1.00" stroke="#ffffff" stroke-width="0.25"/>
<path d="M 378.48 401.50 C 380.71 401.44 382.94 401.38 385.18 401.30 C 385.20 405.41 385.41 409.52 385.48 413.64 C 383.45 413.25 381.44 412.85 379.42 412.51 C 379.07 408.84 378.65 405.17 378.48 401.50 Z" fill="#f6f6f4" opacity="1.00" stroke="#f6f6f4" stroke-width="0.25"/>
<path d="M 54.97 418.55 C 57.53 413.77 59.30 408.16 63.99 404.97 C 66.55 408.93 68.67 413.14 70.69 417.39 C 70.98 417.66 71.56 418.20 71.85 418.47 C 66.23 418.98 60.59 418.51 54.97 418.55 Z" fill="#fdfdfd" opacity="1.00" stroke="#fdfdfd" stroke-width="0.25"/>
<path d="M 55.92 410.41 C 54.48 413.13 53.04 415.86 51.47 418.52 C 49.23 418.53 46.98 418.56 44.73 418.47 C 47.83 414.99 52.21 413.12 55.92 410.41 Z" fill="#ffffff" opacity="1.00" stroke="#ffffff" stroke-width="0.25"/>
<path d="M 138.92 411.66 C 148.28 410.56 157.76 411.56 166.97 413.38 C 172.67 414.47 178.94 415.35 183.26 419.62 C 170.77 418.66 158.64 414.73 146.11 413.71 C 143.73 413.10 140.41 414.13 138.92 411.66 Z" fill="#000000" opacity="1.00" stroke="#000000" stroke-width="0.25"/>
<path d="M 452.08 411.24 C 453.68 410.69 454.25 411.23 453.78 412.87 C 452.16 413.42 451.59 412.87 452.08 411.24 Z" fill="#343434" opacity="1.00" stroke="#343434" stroke-width="0.25"/>
<path d="M 390.67 425.22 C 393.28 424.46 395.76 422.98 398.48 422.75 C 401.12 423.86 403.56 425.50 405.62 427.50 C 403.08 429.40 400.62 431.41 398.17 433.43 C 395.84 430.54 393.24 427.89 390.67 425.22 Z" fill="#fdfdfd" opacity="1.00" stroke="#fdfdfd" stroke-width="0.25"/>
<path d="M 427.11 433.51 C 433.36 430.20 438.13 423.90 445.20 422.34 C 450.26 427.87 453.02 435.12 456.84 441.53 C 463.50 442.99 469.38 446.51 474.95 450.33 C 475.60 450.41 476.90 450.57 477.55 450.65 C 479.42 452.20 481.22 453.89 482.39 456.06 C 457.26 456.10 432.12 456.28 406.99 455.91 C 399.23 456.02 391.45 455.50 383.72 456.50 C 386.95 452.29 391.35 449.35 396.04 447.00 C 403.94 441.79 411.01 435.39 419.01 430.30 C 421.72 431.33 424.38 432.49 427.11 433.51 Z" fill="#010101" opacity="1.00" stroke="#010101" stroke-width="0.25"/>
<path d="M 380.21 429.95 C 382.63 429.14 385.03 427.05 387.60 427.39 C 390.09 429.90 392.48 432.53 395.02 435.02 C 394.97 436.33 393.60 436.87 392.80 437.69 C 390.39 439.45 388.07 441.58 385.24 442.61 C 382.37 441.45 380.00 438.90 376.76 438.41 C 376.36 442.14 380.26 442.55 382.75 443.87 C 382.18 444.37 381.62 444.88 381.07 445.42 C 374.42 446.02 367.73 445.64 361.07 445.61 C 362.59 443.20 364.18 440.83 365.67 438.41 C 369.06 433.57 375.34 432.70 380.21 429.95 Z" fill="#fdfdfd" opacity="1.00" stroke="#fdfdfd" stroke-width="0.25"/>
<path d="M 430.47 436.81 C 435.24 433.60 439.10 429.23 443.98 426.16 C 448.17 434.06 451.59 442.35 455.59 450.35 C 447.90 450.58 440.20 450.20 432.51 450.35 C 429.37 446.01 424.68 443.22 421.06 439.35 C 423.21 438.09 425.73 438.23 428.13 438.20 C 428.77 438.02 430.05 437.66 430.69 437.48 L 430.47 436.81 Z" fill="#fcfcfc" opacity="1.00" stroke="#fcfcfc" stroke-width="0.25"/>
<path d="M 190.11 450.18 C 196.05 441.12 205.26 434.90 212.89 427.35 C 218.80 427.69 224.28 430.11 229.58 432.54 C 230.00 435.27 228.85 438.72 231.20 440.77 C 234.02 443.70 236.66 446.80 239.64 449.58 C 237.45 449.81 235.27 450.08 233.07 450.12 C 218.75 450.18 204.43 450.10 190.11 450.18 Z" fill="#fefefe" opacity="1.00" stroke="#fefefe" stroke-width="0.25"/>
<path d="M 232.49 434.13 C 238.58 435.97 243.76 439.82 249.18 443.02 C 252.63 444.99 256.01 447.12 259.17 449.55 C 253.93 449.76 248.63 450.04 243.41 449.56 C 240.17 445.69 237.11 441.68 233.62 438.02 C 233.34 437.05 232.78 435.10 232.49 434.13 Z" fill="#ffffff" opacity="1.00" stroke="#ffffff" stroke-width="0.25"/>
<path d="M 409.91 441.89 C 412.90 439.22 416.09 436.60 419.92 435.23 C 418.15 438.98 413.36 439.98 411.78 443.75 C 413.61 443.62 415.39 443.26 417.13 442.67 C 420.86 445.19 424.50 447.84 427.94 450.75 C 421.10 450.65 414.26 450.57 407.41 450.55 C 407.54 447.54 407.53 444.12 409.91 441.89 Z" fill="#fefefe" opacity="1.00" stroke="#fefefe" stroke-width="0.25"/>
<path d="M 182.39 441.67 C 186.54 440.37 190.93 439.97 195.16 438.95 C 191.54 442.17 188.86 446.41 185.08 449.40 C 181.11 449.97 177.05 449.74 173.05 449.71 C 176.07 446.94 178.82 443.76 182.39 441.67 Z" fill="#ffffff" opacity="1.00" stroke="#ffffff" stroke-width="0.25"/>
<path d="M 203.10 439.37 C 208.20 438.48 213.40 438.94 218.54 439.14 C 218.51 439.86 218.47 441.31 218.44 442.03 C 212.03 442.25 205.60 442.20 199.19 442.04 C 200.19 440.80 201.45 439.61 203.10 439.37 Z" fill="#000000" opacity="1.00" stroke="#000000" stroke-width="0.25"/>
<path d="M 403.27 446.27 C 403.65 446.00 404.41 445.46 404.79 445.19 C 404.06 446.85 403.45 448.58 402.48 450.13 C 401.30 450.30 400.12 450.43 398.94 450.51 C 400.17 448.89 401.61 447.45 403.27 446.27 Z" fill="#fefefe" opacity="1.00" stroke="#fefefe" stroke-width="0.25"/>
<path d="M 461.28 446.38 C 462.71 447.56 463.88 449.01 465.06 450.43 C 463.94 450.44 462.83 450.44 461.72 450.44 C 461.57 449.12 459.59 447.28 461.28 446.38 Z" fill="#fefefe" opacity="1.00" stroke="#fefefe" stroke-width="0.25"/>
</svg>