<?xml version="1.0" encoding="utf-8"?>
<svg xmlns="http://www.w3.org/2000/svg" height="512pt" version="1.1" viewBox="0 0 512 512" width="512pt">
<path d="M 0.00 0.00 L 512.00 0.00 L 512.00 512.00 L 0.00 512.00 L 0.00 0.00 Z" fill="transparent" opacity="1.00" stroke="transparent" stroke-width="0.25"/>
<path d="M 182.57 53.23 C 207.93 45.44 234.48 41.34 261.03 41.96 C 288.40 42.96 315.76 48.20 341.16 58.58 C 348.88 61.94 356.41 65.72 364.04 69.27 C 380.56 76.42 397.25 83.95 411.12 95.64 C 425.89 107.92 438.39 122.75 449.29 138.51 C 458.96 151.77 467.38 165.94 474.37 180.79 C 475.90 183.97 477.81 187.03 478.49 190.55 C 475.31 191.57 474.61 188.11 473.47 186.01 C 465.18 167.47 454.53 150.04 442.30 133.85 C 433.36 120.98 422.67 109.36 410.97 98.96 C 407.07 95.83 402.92 93.02 398.79 90.19 C 393.49 87.19 388.22 84.13 382.83 81.30 C 384.25 82.52 385.73 83.68 387.25 84.79 C 399.00 94.61 411.21 104.08 421.16 115.81 C 425.46 120.92 430.04 125.85 433.76 131.41 C 445.80 147.91 456.82 165.40 464.35 184.46 C 475.00 213.50 481.95 244.37 480.69 275.46 C 480.24 294.26 476.52 312.87 470.88 330.77 C 459.78 367.24 439.42 400.83 412.67 427.93 C 412.54 428.35 412.29 429.17 412.17 429.59 C 415.79 429.39 419.42 429.52 423.06 429.46 C 425.08 429.66 426.20 427.64 427.46 426.43 C 432.06 420.71 436.87 415.15 441.17 409.19 C 454.54 391.39 465.60 371.89 474.45 351.49 C 475.35 349.39 478.44 351.27 477.11 352.97 C 466.30 378.01 452.06 401.69 434.47 422.57 C 432.66 424.94 430.07 426.77 428.94 429.62 C 442.65 429.60 456.38 429.44 470.08 429.74 C 474.61 430.67 474.20 437.84 469.75 438.64 C 325.49 438.73 181.20 438.65 36.93 438.65 C 34.20 438.98 33.20 436.07 32.55 434.00 C 33.22 431.97 34.44 429.64 36.93 429.68 C 53.61 429.41 70.31 429.79 87.00 429.53 C 81.78 423.23 76.06 417.31 71.28 410.65 C 57.93 392.81 46.20 373.63 37.64 353.03 C 37.67 352.53 37.74 351.52 37.77 351.01 C 39.41 349.45 40.23 352.09 40.87 353.12 C 42.15 356.07 43.58 358.95 44.90 361.89 C 51.75 376.78 60.67 390.60 70.05 404.00 C 76.75 412.80 83.34 421.83 91.47 429.38 C 95.86 429.94 100.33 429.80 104.76 429.70 C 94.65 419.54 84.77 409.01 76.72 397.11 C 65.13 381.63 56.11 364.42 48.01 346.91 C 46.89 344.60 46.01 342.18 45.16 339.77 C 41.77 331.75 39.08 323.45 36.84 315.04 C 25.83 275.38 29.33 232.56 43.17 194.06 C 44.55 190.19 45.91 186.23 48.10 182.73 C 48.72 182.69 49.96 182.60 50.58 182.56 C 43.00 201.23 38.78 221.10 36.75 241.10 C 38.72 237.37 39.04 233.00 40.66 229.11 C 47.87 208.01 55.18 186.77 66.48 167.44 C 83.80 136.75 108.26 110.20 137.27 90.21 C 158.31 75.87 182.38 66.53 207.11 60.82 C 259.16 48.42 315.47 57.63 361.76 84.11 C 382.17 96.04 401.31 110.55 416.95 128.37 C 433.95 147.59 447.69 169.54 458.26 192.90 C 461.67 200.62 465.78 208.02 468.56 216.01 C 466.18 199.86 460.02 184.58 452.61 170.14 C 443.71 153.30 434.29 136.49 421.61 122.16 C 408.12 105.97 391.56 92.72 374.45 80.55 C 368.90 76.99 363.22 73.64 357.41 70.53 C 328.97 54.51 296.32 47.33 263.95 45.61 C 239.75 44.85 215.50 47.82 192.15 54.21 C 172.45 59.16 153.86 67.89 136.82 78.88 C 130.12 82.98 123.71 87.61 117.91 92.91 C 106.10 103.02 94.58 113.56 84.70 125.60 C 76.63 135.38 69.18 145.69 62.55 156.49 C 61.93 156.59 60.69 156.80 60.07 156.90 C 60.33 155.36 60.54 153.76 61.48 152.47 C 69.86 138.83 79.37 125.90 89.93 113.89 C 90.57 113.16 91.33 112.57 92.20 112.13 C 92.48 111.67 93.04 110.75 93.33 110.29 C 95.80 108.92 97.06 106.25 98.95 104.26 C 97.54 105.80 95.99 107.24 94.11 108.19 C 92.08 109.16 91.70 111.68 90.01 113.03 C 68.51 133.03 50.06 156.81 38.46 183.92 C 36.88 186.92 35.89 190.23 34.02 193.06 C 32.94 194.70 30.57 192.30 32.08 190.98 C 38.77 174.88 47.01 159.40 57.27 145.28 C 61.25 139.66 65.69 134.41 70.20 129.23 C 80.38 117.76 91.45 107.08 102.99 96.98 C 115.03 86.55 128.82 78.42 142.61 70.56 C 155.33 63.53 168.64 57.44 182.57 53.23 Z" fill="#010001" opacity="1.00" stroke="#010001" stroke-width="0.25"/>
<path d="M 249.24 68.97 C 254.01 68.93 258.84 68.47 263.56 69.37 C 263.21 114.77 263.27 160.19 263.16 205.60 C 263.95 205.64 265.53 205.71 266.32 205.75 C 266.22 160.28 266.75 114.80 266.51 69.34 C 270.98 69.40 275.39 70.17 279.81 70.80 C 279.88 116.46 279.47 162.13 279.87 207.79 C 280.61 207.82 282.08 207.88 282.82 207.91 C 282.72 164.26 283.34 120.63 283.18 76.99 C 283.14 75.00 283.23 73.01 283.43 71.04 C 287.68 72.05 292.02 72.67 296.28 73.67 C 296.41 119.68 296.01 165.69 296.31 211.70 C 297.33 211.92 298.36 212.16 299.39 212.38 C 299.69 166.40 299.53 120.42 299.57 74.44 C 304.04 74.57 308.26 76.34 312.51 77.60 C 312.66 124.22 312.24 170.84 312.59 217.46 C 313.57 217.55 314.56 217.63 315.55 217.71 C 315.87 171.55 315.79 125.38 315.67 79.21 C 320.42 79.94 324.96 81.76 329.36 83.64 C 329.10 129.15 329.29 174.67 329.31 220.18 C 326.53 220.42 323.75 220.40 320.97 220.34 C 325.26 221.42 329.20 225.43 333.81 223.81 C 343.98 223.61 354.19 223.82 364.38 223.71 C 364.38 228.07 364.43 232.43 364.47 236.79 C 365.55 236.85 366.64 236.90 367.73 236.96 C 367.61 232.55 367.58 228.13 367.59 223.71 C 371.86 223.69 376.14 223.67 380.42 223.74 C 380.39 233.17 380.50 242.61 380.37 252.04 C 375.29 246.54 369.80 238.25 361.17 239.90 C 365.07 240.72 367.77 243.76 370.56 246.35 C 376.07 251.29 379.81 257.79 383.34 264.20 C 383.42 264.94 383.56 266.42 383.63 267.16 C 382.01 267.59 380.40 268.06 378.79 268.52 C 376.31 261.48 372.56 254.90 367.98 249.02 C 365.52 246.23 362.93 243.34 359.51 241.72 C 347.00 236.57 334.61 231.15 322.11 225.98 C 302.19 217.22 280.86 210.51 258.91 210.51 C 245.38 210.20 231.82 211.96 218.79 215.62 C 205.42 219.39 192.93 225.57 180.04 230.62 C 171.57 233.86 163.41 237.82 154.91 240.95 C 152.16 241.98 149.56 243.51 147.53 245.64 C 141.46 252.33 138.05 260.82 134.66 269.04 C 134.52 269.18 134.24 269.46 134.10 269.60 C 132.59 268.85 131.00 268.17 129.28 268.43 C 129.67 266.77 130.09 265.10 130.82 263.55 C 135.21 254.96 140.25 246.32 148.09 240.41 C 143.87 239.29 141.06 244.16 137.64 245.92 C 137.78 238.54 137.77 231.17 137.77 223.79 C 143.45 223.68 149.12 223.71 154.80 223.73 C 154.81 227.72 154.84 231.71 154.90 235.70 C 156.47 235.67 158.51 235.09 158.17 233.08 C 158.27 229.95 158.18 226.82 158.19 223.69 C 161.37 223.56 164.55 223.65 167.74 223.73 C 167.76 225.68 167.78 227.64 167.76 229.59 C 168.70 229.57 169.64 229.56 170.58 229.56 C 170.67 227.64 170.73 225.72 170.77 223.81 C 172.86 224.17 176.54 222.56 176.75 225.74 C 181.88 224.05 187.08 222.58 192.11 220.60 C 188.01 220.01 183.88 220.57 179.76 220.42 C 179.72 175.58 179.80 130.74 179.74 85.91 C 179.30 84.40 180.55 83.40 181.83 83.10 C 186.30 81.42 190.83 79.87 195.40 78.49 C 195.47 124.90 195.40 171.31 195.62 217.72 C 196.57 217.70 197.52 217.67 198.48 217.63 C 198.87 170.94 198.63 124.24 198.51 77.54 C 203.63 75.22 209.35 74.62 214.79 73.29 C 215.26 115.86 215.06 158.43 215.15 200.99 C 215.18 204.60 215.01 208.22 215.46 211.81 C 216.20 211.47 217.69 210.78 218.43 210.44 C 218.33 164.43 218.31 118.43 218.36 72.42 C 221.43 72.03 224.50 71.57 227.58 71.14 C 227.90 116.83 227.62 162.54 227.68 208.23 C 228.49 208.16 230.10 208.02 230.91 207.95 C 231.41 162.21 231.02 116.44 231.15 70.68 C 235.98 70.28 240.78 69.56 245.62 69.27 C 246.04 114.71 245.43 160.18 245.76 205.63 C 246.41 205.65 247.70 205.69 248.34 205.71 C 249.07 203.53 248.76 201.21 248.82 198.96 C 248.88 160.28 248.92 121.60 248.92 82.92 C 249.12 78.27 248.82 73.61 249.24 68.97 Z" fill="#fdfdfd" opacity="1.00" stroke="#fdfdfd" stroke-width="0.25"/>
<path d="M 332.63 85.38 C 336.49 86.37 340.02 88.29 343.78 89.57 C 344.18 91.69 344.24 93.85 344.17 96.00 C 343.90 137.30 344.40 178.66 343.89 219.92 C 340.15 220.47 336.35 220.05 332.59 220.26 C 332.66 175.30 332.41 130.34 332.63 85.38 Z" fill="#fefefe" opacity="1.00" stroke="#fefefe" stroke-width="0.25"/>
<path d="M 170.49 88.25 C 172.39 87.31 174.31 86.43 176.28 85.64 C 176.48 130.48 176.36 175.33 176.28 220.17 C 174.33 220.03 172.38 219.89 170.43 219.75 C 170.61 175.92 170.53 132.08 170.49 88.25 Z" fill="#ffffff" opacity="1.00" stroke="#ffffff" stroke-width="0.25"/>
<path d="M 158.26 94.45 C 161.31 92.91 164.20 90.97 167.54 90.08 C 167.28 133.42 167.49 176.77 167.38 220.11 C 164.40 220.11 161.42 220.11 158.44 220.27 C 158.29 218.87 158.15 217.46 158.15 216.05 C 158.24 175.52 158.06 134.98 158.26 94.45 Z" fill="#fefefe" opacity="1.00" stroke="#fefefe" stroke-width="0.25"/>
<path d="M 105.93 96.74 C 108.58 95.05 110.95 92.66 114.13 91.99 C 111.08 95.28 107.52 98.17 103.58 100.33 C 103.81 98.82 104.57 97.49 105.93 96.74 Z" fill="#353535" opacity="1.00" stroke="#353535" stroke-width="0.25"/>
<path d="M 347.33 91.96 C 353.62 93.34 358.70 97.80 364.45 100.53 C 364.65 140.41 364.38 180.28 364.43 220.16 C 358.72 219.98 352.99 220.33 347.29 219.91 C 347.41 177.26 347.38 134.61 347.33 91.96 Z" fill="#fdfdfd" opacity="1.00" stroke="#fdfdfd" stroke-width="0.25"/>
<path d="M 139.57 105.71 C 144.54 102.42 149.32 98.82 154.66 96.15 C 155.10 128.44 154.68 160.73 154.82 193.02 C 154.72 201.96 154.98 210.91 154.72 219.84 C 151.95 220.60 148.89 219.92 146.02 220.14 C 143.24 219.95 140.22 220.84 137.64 219.51 C 138.11 182.34 137.69 145.14 137.89 107.95 C 138.13 106.96 138.68 106.21 139.57 105.71 Z" fill="#fdfdfd" opacity="1.00" stroke="#fdfdfd" stroke-width="0.25"/>
<path d="M 367.97 103.27 C 372.42 105.82 376.76 108.75 380.46 112.30 C 380.71 148.17 380.40 184.05 380.59 219.92 C 376.26 220.33 371.91 220.00 367.57 220.16 C 367.46 182.44 367.73 144.71 367.62 106.99 C 367.66 105.75 367.77 104.50 367.97 103.27 Z" fill="#fefefe" opacity="1.00" stroke="#fefefe" stroke-width="0.25"/>
<path d="M 129.30 113.19 C 131.01 111.88 132.69 110.52 134.39 109.19 C 134.55 110.79 134.64 112.40 134.67 114.02 C 134.68 149.33 134.66 184.64 134.65 219.95 C 129.31 220.38 123.95 219.96 118.60 220.19 C 118.53 187.59 118.49 154.99 118.52 122.39 C 121.80 118.97 125.59 116.11 129.30 113.19 Z" fill="#fdfdfd" opacity="1.00" stroke="#fdfdfd" stroke-width="0.25"/>
<path d="M 82.24 113.27 C 82.74 113.79 82.74 113.79 82.24 113.27 Z" fill="#cecece" opacity="1.00" stroke="#cecece" stroke-width="0.25"/>
<path d="M 384.39 115.24 C 386.76 116.67 388.84 118.53 391.12 120.09 C 391.46 153.33 391.05 186.62 391.41 219.88 C 388.82 219.91 386.24 219.92 383.65 219.91 C 383.61 188.95 383.72 157.98 383.62 127.01 C 383.66 123.23 383.46 119.44 383.78 115.66 L 384.39 115.24 Z" fill="#fdfdfd" opacity="1.00" stroke="#fdfdfd" stroke-width="0.25"/>
<path d="M 394.54 124.10 C 399.74 127.96 404.46 132.66 408.56 137.63 C 409.00 159.42 408.65 181.26 408.78 203.07 C 408.66 208.79 409.04 214.53 408.53 220.23 C 404.01 219.87 399.48 220.30 394.97 220.12 L 394.58 219.70 C 394.52 187.84 394.36 155.97 394.54 124.10 Z" fill="#fefefe" opacity="1.00" stroke="#fefefe" stroke-width="0.25"/>
<path d="M 110.50 130.89 C 112.04 129.71 113.55 128.48 115.14 127.36 C 115.46 158.30 115.24 189.24 115.40 220.18 C 113.53 220.18 111.66 220.19 109.79 220.22 C 109.83 192.16 109.89 164.11 109.86 136.05 C 109.82 134.31 110.15 132.59 110.50 130.89 Z" fill="#fefefe" opacity="1.00" stroke="#fefefe" stroke-width="0.25"/>
<path d="M 106.65 134.18 C 106.97 162.80 106.62 191.43 106.75 220.05 C 102.03 220.30 97.31 220.06 92.59 220.26 C 92.31 198.14 92.41 176.02 92.30 153.90 C 92.43 152.61 92.10 151.08 93.03 150.02 C 97.25 144.48 102.01 139.37 106.65 134.18 Z" fill="#fdfdfd" opacity="1.00" stroke="#fdfdfd" stroke-width="0.25"/>
<path d="M 412.31 141.91 C 417.72 146.77 421.85 153.00 425.78 159.11 C 427.47 161.35 427.19 164.31 427.24 166.96 C 427.12 183.62 427.11 200.29 427.13 216.96 C 427.19 218.13 426.97 219.25 426.47 220.31 C 421.79 220.00 417.09 220.02 412.42 220.34 C 412.00 194.22 412.26 168.05 412.31 141.91 Z" fill="#fdfdfd" opacity="1.00" stroke="#fdfdfd" stroke-width="0.25"/>
<path d="M 74.81 177.54 C 79.11 169.91 83.99 162.62 88.58 155.17 C 89.94 176.58 88.66 198.10 89.43 219.54 C 84.61 220.96 79.43 219.70 74.47 220.31 C 73.69 207.17 74.87 193.93 73.78 180.82 C 74.07 179.71 74.41 178.62 74.81 177.54 Z" fill="#fdfdfd" opacity="1.00" stroke="#fdfdfd" stroke-width="0.25"/>
<path d="M 59.33 159.47 C 60.10 159.36 60.87 159.27 61.65 159.20 C 59.38 162.54 57.37 166.05 55.23 169.47 C 53.94 170.36 54.12 168.18 54.73 167.68 C 56.28 164.96 57.60 162.08 59.33 159.47 Z" fill="#010001" opacity="1.00" stroke="#010001" stroke-width="0.25"/>
<path d="M 430.38 166.15 C 433.05 167.33 433.60 170.69 435.23 172.89 C 435.47 173.41 435.94 174.45 436.17 174.97 C 436.19 187.33 436.00 199.68 435.89 212.04 C 435.78 214.79 436.76 217.71 435.56 220.33 C 433.84 220.25 432.13 220.23 430.43 220.28 C 429.90 202.25 430.22 184.18 430.38 166.15 Z" fill="#ffffff" opacity="1.00" stroke="#ffffff" stroke-width="0.25"/>
<path d="M 49.30 180.63 C 49.59 179.15 49.29 176.56 51.61 177.18 C 51.52 178.25 51.42 179.31 51.32 180.37 C 50.82 180.44 49.81 180.57 49.30 180.63 Z" fill="#010001" opacity="1.00" stroke="#010001" stroke-width="0.25"/>
<path d="M 439.51 180.19 C 443.92 188.54 448.02 197.06 451.22 205.95 C 452.09 210.67 451.60 215.53 451.74 220.32 C 447.62 220.13 443.49 220.15 439.37 220.29 C 439.22 206.92 439.14 193.55 439.51 180.19 Z" fill="#fdfdfd" opacity="1.00" stroke="#fdfdfd" stroke-width="0.25"/>
<path d="M 56.50 220.05 C 60.39 208.03 65.16 196.32 70.63 184.94 C 71.24 189.26 70.78 193.63 70.89 197.97 C 71.08 205.40 71.32 212.85 70.74 220.27 C 66.00 220.17 61.24 220.41 56.50 220.05 Z" fill="#fefefe" opacity="1.00" stroke="#fefefe" stroke-width="0.25"/>
<path d="M 454.60 218.45 C 455.95 217.18 457.74 219.45 456.53 220.65 C 456.04 220.61 455.07 220.53 454.59 220.49 C 454.59 219.98 454.60 218.96 454.60 218.45 Z" fill="#fafafa" opacity="1.00" stroke="#fafafa" stroke-width="0.25"/>
<path d="M 57.11 223.80 C 61.80 223.79 66.50 223.73 71.19 223.82 C 71.50 243.42 71.57 263.02 71.84 282.63 C 66.78 282.59 61.71 282.74 56.64 282.48 C 57.06 262.93 56.71 243.36 57.11 223.80 Z" fill="#fcfcfc" opacity="1.00" stroke="#fcfcfc" stroke-width="0.25"/>
<path d="M 74.50 223.78 C 79.42 223.74 84.35 223.76 89.27 223.80 C 89.34 243.37 89.18 262.94 89.37 282.51 C 84.68 282.85 79.97 282.62 75.27 282.64 C 74.52 263.03 74.67 243.40 74.50 223.78 Z" fill="#fdfdfd" opacity="1.00" stroke="#fdfdfd" stroke-width="0.25"/>
<path d="M 92.47 282.74 C 92.51 263.07 92.39 243.40 92.56 223.73 C 97.28 223.83 102.00 223.65 106.72 223.89 C 106.77 243.47 106.74 263.04 106.60 282.62 C 101.89 282.79 97.18 282.73 92.47 282.74 Z" fill="#fdfdfd" opacity="1.00" stroke="#fdfdfd" stroke-width="0.25"/>
<path d="M 109.79 223.72 C 111.65 223.71 113.52 223.71 115.39 223.72 C 115.51 243.31 115.29 262.92 115.53 282.51 C 113.54 282.61 111.55 282.61 109.56 282.51 C 109.98 262.92 109.74 243.32 109.79 223.72 Z" fill="#fefefd" opacity="1.00" stroke="#fefefd" stroke-width="0.25"/>
<path d="M 118.62 223.77 C 123.91 223.75 129.21 223.76 134.51 223.70 C 134.75 230.79 134.56 237.89 134.62 244.99 C 134.56 247.41 134.89 250.07 133.35 252.13 C 130.54 256.53 128.02 261.12 126.14 266.00 C 124.32 271.33 122.84 276.80 121.91 282.36 C 121.06 282.37 119.37 282.40 118.53 282.41 C 118.57 262.87 118.70 243.32 118.62 223.77 Z" fill="#fdfdfd" opacity="1.00" stroke="#fdfdfd" stroke-width="0.25"/>
<path d="M 383.49 253.06 C 383.51 243.28 383.43 233.50 383.64 223.72 C 386.20 223.71 388.77 223.71 391.33 223.73 C 391.34 240.19 391.20 256.65 391.31 273.10 C 389.32 270.27 388.88 266.71 387.28 263.67 C 385.85 260.20 383.12 257.02 383.49 253.06 Z" fill="#ffffff" opacity="1.00" stroke="#ffffff" stroke-width="0.25"/>
<path d="M 394.62 223.74 C 399.35 223.79 404.10 223.56 408.83 223.88 C 408.69 240.19 408.90 256.50 408.77 272.80 C 403.99 272.87 399.20 272.99 394.42 272.74 C 394.89 256.42 394.49 240.07 394.62 223.74 Z" fill="#fefefe" opacity="1.00" stroke="#fefefe" stroke-width="0.25"/>
<path d="M 412.23 223.82 C 417.13 223.66 422.04 223.64 426.95 223.76 C 427.26 240.10 426.76 256.44 426.87 272.79 C 422.01 273.29 417.13 273.10 412.27 273.07 C 412.16 256.65 412.29 240.23 412.23 223.82 Z" fill="#fdfdfd" opacity="1.00" stroke="#fdfdfd" stroke-width="0.25"/>
<path d="M 430.19 223.73 C 432.06 223.68 433.95 223.67 435.84 223.72 C 435.72 240.23 436.11 256.77 435.57 273.27 C 433.86 273.20 432.15 273.18 430.44 273.23 C 429.72 256.76 430.38 240.22 430.19 223.73 Z" fill="#ffffff" opacity="1.00" stroke="#ffffff" stroke-width="0.25"/>
<path d="M 439.21 223.78 C 443.41 223.76 447.60 223.66 451.80 223.86 C 451.69 240.28 451.84 256.71 451.80 273.13 C 447.65 273.26 443.50 273.06 439.36 273.35 C 439.05 256.83 439.24 240.30 439.21 223.78 Z" fill="#fcfcfc" opacity="1.00" stroke="#fcfcfc" stroke-width="0.25"/>
<path d="M 455.10 223.62 C 456.29 223.66 457.49 223.71 458.69 223.76 C 462.38 239.96 465.16 256.51 464.49 273.17 C 461.44 273.08 458.38 273.06 455.33 273.24 C 454.89 256.71 455.22 240.16 455.10 223.62 Z" fill="#fdfdfd" opacity="1.00" stroke="#fdfdfd" stroke-width="0.25"/>
<path d="M 53.56 226.03 C 53.78 244.88 53.78 263.75 53.58 282.60 C 51.52 282.56 49.46 282.53 47.41 282.51 C 45.84 263.50 48.71 244.40 53.56 226.03 Z" fill="#ffffff" opacity="1.00" stroke="#ffffff" stroke-width="0.25"/>
<path d="M 204.98 239.59 C 223.10 232.74 242.69 230.48 261.97 230.79 C 273.40 230.98 284.83 232.40 295.91 235.22 C 310.89 239.02 324.88 245.71 339.10 251.60 C 343.37 253.78 348.36 254.84 351.84 258.33 C 357.35 264.01 360.88 271.34 362.97 278.91 C 364.89 285.45 363.94 292.33 364.13 299.04 C 364.27 342.20 363.81 385.37 364.35 428.53 C 293.01 429.06 221.65 428.74 150.30 428.71 C 150.02 382.47 150.38 336.24 150.18 290.00 C 149.78 279.42 154.03 269.29 159.69 260.56 C 162.22 256.70 166.96 255.53 170.86 253.59 C 182.18 248.80 193.28 243.42 204.98 239.59 Z" fill="#fcfcfc" opacity="1.00" stroke="#fcfcfc" stroke-width="0.25"/>
<path d="M 203.30 258.08 C 204.01 256.53 205.06 255.04 206.98 255.22 C 240.65 255.04 274.32 255.21 308.00 255.12 C 309.38 255.03 311.44 255.24 311.67 256.97 C 312.64 260.64 308.01 262.59 305.04 262.43 C 272.62 262.63 240.19 262.46 207.77 262.45 C 205.99 261.31 204.51 259.79 203.30 258.08 Z" fill="#010000" opacity="1.00" stroke="#010000" stroke-width="0.25"/>
<path d="M 383.34 264.20 C 384.89 268.22 387.11 271.96 388.36 276.10 C 391.02 284.13 391.99 292.61 392.15 301.04 C 391.59 326.34 391.94 351.66 391.78 376.98 C 391.73 394.68 391.68 412.40 392.01 430.10 C 389.36 430.17 386.69 430.35 384.04 430.06 C 383.50 427.73 383.81 425.31 383.76 422.95 C 383.82 379.28 383.85 335.61 383.89 291.94 C 384.06 286.83 382.93 281.83 382.23 276.80 C 385.79 279.33 384.30 284.30 384.88 288.01 C 385.08 335.01 384.81 382.01 385.02 429.00 C 386.65 428.69 388.30 428.40 389.89 427.89 C 390.77 425.02 390.39 421.98 390.45 419.03 C 390.33 380.36 390.48 341.68 390.46 303.02 C 390.80 291.88 388.42 280.87 384.52 270.49 C 383.84 269.78 383.06 269.21 382.18 268.78 C 381.93 270.82 381.70 272.85 381.52 274.91 C 380.43 272.85 379.79 270.61 378.79 268.52 C 380.40 268.06 382.01 267.59 383.63 267.16 C 383.56 266.42 383.42 264.94 383.34 264.20 Z" fill="#dcbe36" opacity="1.00" stroke="#dcbe36" stroke-width="0.25"/>
<path d="M 129.28 268.43 C 131.00 268.17 132.59 268.85 134.10 269.60 C 134.24 269.46 134.52 269.18 134.66 269.04 C 133.17 274.73 132.17 280.52 131.17 286.31 L 130.99 287.26 C 130.75 288.49 130.57 289.72 130.52 290.98 C 130.54 337.14 130.62 383.30 130.45 429.46 C 128.44 429.50 126.43 429.54 124.41 429.58 C 124.24 383.31 124.47 337.04 124.31 290.77 C 124.84 283.17 126.35 275.45 129.28 268.43 Z" fill="#fbce08" opacity="1.00" stroke="#fbce08" stroke-width="0.25"/>
<path d="M 382.18 268.78 C 383.06 269.21 383.84 269.78 384.52 270.49 C 388.42 280.87 390.80 291.88 390.46 303.02 C 390.48 341.68 390.33 380.36 390.45 419.03 C 390.39 421.98 390.77 425.02 389.89 427.89 C 388.30 428.40 386.65 428.69 385.02 429.00 C 384.81 382.01 385.08 335.01 384.88 288.01 C 384.30 284.30 385.79 279.33 382.23 276.80 C 382.04 276.64 381.64 276.30 381.45 276.13 C 381.47 275.83 381.50 275.21 381.52 274.91 C 381.70 272.85 381.93 270.82 382.18 268.78 Z" fill="#fbcb06" opacity="1.00" stroke="#fbcb06" stroke-width="0.25"/>
<path d="M 393.16 276.46 C 398.37 276.60 403.59 276.57 408.80 276.47 C 408.88 295.55 408.84 314.64 408.76 333.73 C 404.36 333.71 399.96 333.88 395.57 333.57 C 395.91 322.05 395.74 310.53 395.77 299.01 C 395.79 291.40 394.45 283.92 393.16 276.46 Z" fill="#fdfdfd" opacity="1.00" stroke="#fdfdfd" stroke-width="0.25"/>
<path d="M 412.36 276.49 C 417.14 276.66 421.93 276.59 426.71 276.49 C 427.33 280.63 427.05 284.83 427.09 289.00 C 427.10 303.90 427.14 318.82 426.78 333.72 C 421.92 333.73 417.06 333.72 412.20 333.66 C 412.25 314.60 412.16 295.55 412.36 276.49 Z" fill="#fdfdfd" opacity="1.00" stroke="#fdfdfd" stroke-width="0.25"/>
<path d="M 430.32 276.52 C 432.10 276.53 433.89 276.54 435.68 276.54 C 436.01 295.60 435.72 314.66 435.80 333.72 C 433.94 333.71 432.08 333.69 430.23 333.68 C 430.14 314.63 430.13 295.57 430.32 276.52 Z" fill="#ffffff" opacity="1.00" stroke="#ffffff" stroke-width="0.25"/>
<path d="M 439.26 276.55 C 443.40 276.65 447.54 276.60 451.68 276.53 C 452.01 288.02 451.96 299.53 451.91 311.02 C 451.80 318.59 452.45 326.16 451.96 333.72 C 447.71 333.70 443.47 333.71 439.23 333.67 C 439.15 314.63 439.06 295.59 439.26 276.55 Z" fill="#fdfdfd" opacity="1.00" stroke="#fdfdfd" stroke-width="0.25"/>
<path d="M 234.77 282.06 C 235.75 279.56 238.22 277.29 241.06 277.52 C 252.06 277.45 263.06 277.46 274.05 277.42 C 277.22 277.21 279.90 280.15 280.53 283.06 C 280.75 286.80 280.47 290.55 280.66 294.30 C 287.28 295.62 294.41 296.45 299.97 300.60 C 301.28 299.91 302.61 299.24 303.93 298.57 C 306.26 299.06 308.65 300.66 308.51 303.32 C 308.61 317.87 308.49 332.43 308.51 346.99 C 308.90 350.69 305.88 354.67 302.03 354.50 C 271.59 354.39 241.15 354.48 210.71 354.48 C 208.11 352.87 206.54 350.09 206.88 346.99 C 207.24 332.65 207.10 318.29 207.24 303.95 C 207.06 301.99 208.59 300.69 209.80 299.42 C 210.62 299.42 212.25 299.44 213.06 299.45 C 214.39 300.53 216.47 301.52 217.75 299.80 C 222.72 296.55 228.82 295.39 234.59 294.37 C 234.90 290.27 234.07 286.11 234.77 282.06 Z" fill="#070200" opacity="1.00" stroke="#070200" stroke-width="0.25"/>
<path d="M 455.22 308.02 C 455.43 297.49 454.92 286.96 455.32 276.43 C 458.27 276.62 461.23 276.61 464.19 276.61 C 463.56 286.78 462.80 296.96 460.96 306.99 C 459.60 314.10 457.34 320.99 455.46 327.97 C 454.84 321.34 455.32 314.67 455.22 308.02 Z" fill="#fefefe" opacity="1.00" stroke="#fefefe" stroke-width="0.25"/>
<path d="M 239.24 281.50 C 242.29 281.44 245.33 281.45 248.38 281.44 C 248.32 281.90 248.19 282.83 248.13 283.29 C 246.16 283.90 244.13 284.24 242.10 284.57 C 241.50 286.92 242.85 290.95 239.83 291.82 C 237.85 288.94 238.68 285.24 239.15 282.04 L 239.24 281.50 Z" fill="#fdfce9" opacity="1.00" stroke="#fdfce9" stroke-width="0.25"/>
<path d="M 248.38 281.44 C 256.92 281.29 265.46 281.35 273.99 281.43 C 275.39 281.24 276.98 282.19 276.51 283.82 C 276.06 294.27 276.47 304.74 276.29 315.20 C 269.71 318.65 263.76 323.19 257.07 326.45 C 250.89 322.42 244.37 318.93 238.28 314.74 C 238.15 307.55 238.31 300.35 238.18 293.16 C 239.39 293.14 240.60 293.12 241.82 293.11 C 241.12 293.79 240.41 294.46 239.69 295.11 C 239.60 301.10 239.27 307.11 239.81 313.08 C 241.39 315.23 243.92 316.38 246.09 317.85 C 249.72 319.95 253.12 322.54 257.09 323.97 C 260.04 323.59 262.49 321.65 264.99 320.18 C 268.21 317.95 271.65 316.03 274.81 313.72 C 276.14 305.61 275.00 297.24 275.42 289.03 C 275.25 286.92 275.94 283.20 272.98 282.91 C 266.32 282.25 259.60 282.72 252.92 282.66 C 250.95 282.47 249.46 283.87 247.89 284.80 C 247.95 284.42 248.07 283.67 248.13 283.29 C 248.19 282.83 248.32 281.90 248.38 281.44 Z" fill="#dcbe36" opacity="1.00" stroke="#dcbe36" stroke-width="0.25"/>
<path d="M 238.18 293.16 C 238.59 289.52 237.32 285.32 239.15 282.04 C 238.68 285.24 237.85 288.94 239.83 291.82 C 242.85 290.95 241.50 286.92 242.10 284.57 C 244.13 284.24 246.16 283.90 248.13 283.29 C 248.07 283.67 247.95 284.42 247.89 284.80 C 246.72 285.58 245.32 285.87 244.02 286.34 C 243.33 288.61 242.70 290.90 241.82 293.11 C 240.60 293.12 239.39 293.14 238.18 293.16 Z" fill="#dfd16a" opacity="1.00" stroke="#dfd16a" stroke-width="0.25"/>
<path d="M 247.89 284.80 C 249.46 283.87 250.95 282.47 252.92 282.66 C 259.60 282.72 266.32 282.25 272.98 282.91 C 275.94 283.20 275.25 286.92 275.42 289.03 C 275.00 297.24 276.14 305.61 274.81 313.72 C 271.65 316.03 268.21 317.95 264.99 320.18 C 262.49 321.65 260.04 323.59 257.09 323.97 C 253.12 322.54 249.72 319.95 246.09 317.85 C 243.92 316.38 241.39 315.23 239.81 313.08 C 239.27 307.11 239.60 301.10 239.69 295.11 C 240.41 294.46 241.12 293.79 241.82 293.11 C 242.70 290.90 243.33 288.61 244.02 286.34 C 245.32 285.87 246.72 285.58 247.89 284.80 Z" fill="#fecf03" opacity="1.00" stroke="#fecf03" stroke-width="0.25"/>
<path d="M 276.51 283.82 L 277.09 283.83 C 276.94 293.89 276.94 303.97 277.14 314.03 C 276.93 314.32 276.50 314.91 276.29 315.20 C 276.47 304.74 276.06 294.27 276.51 283.82 Z" fill="#bba63e" opacity="1.00" stroke="#bba63e" stroke-width="0.25"/>
<path d="M 118.54 286.32 C 119.13 286.02 119.73 285.71 120.32 285.41 C 119.24 301.52 119.89 317.68 119.70 333.81 C 119.37 333.78 118.71 333.73 118.38 333.70 C 118.40 317.91 118.47 302.12 118.54 286.32 Z" fill="#fffdff" opacity="1.00" stroke="#fffdff" stroke-width="0.25"/>
<path d="M 48.06 286.15 C 49.92 286.14 51.78 286.15 53.64 286.17 C 53.66 296.46 53.66 306.76 53.55 317.05 C 51.63 306.77 48.77 296.63 48.06 286.15 Z" fill="#ffffff" opacity="1.00" stroke="#ffffff" stroke-width="0.25"/>
<path d="M 57.23 286.31 C 62.10 286.49 66.97 286.40 71.84 286.39 C 71.99 302.17 72.39 317.95 72.03 333.73 C 67.96 333.73 63.88 333.93 59.83 333.52 C 58.36 329.15 56.48 324.80 56.74 320.07 C 57.02 308.82 56.50 297.54 57.23 286.31 Z" fill="#fdfdfd" opacity="1.00" stroke="#fdfdfd" stroke-width="0.25"/>
<path d="M 75.30 286.41 C 79.99 286.57 84.69 286.34 89.38 286.55 C 89.28 302.24 89.17 317.93 89.36 333.61 C 84.71 333.89 80.04 333.77 75.38 333.71 C 75.49 317.94 75.18 302.17 75.30 286.41 Z" fill="#fdfdfd" opacity="1.00" stroke="#fdfdfd" stroke-width="0.25"/>
<path d="M 92.52 286.39 C 97.21 286.41 101.90 286.37 106.59 286.42 C 106.69 302.19 106.63 317.96 106.55 333.73 C 101.83 333.85 97.11 333.85 92.40 333.69 C 92.60 317.92 92.45 302.15 92.52 286.39 Z" fill="#fdfdfd" opacity="1.00" stroke="#fdfdfd" stroke-width="0.25"/>
<path d="M 109.60 286.52 C 111.54 286.47 113.49 286.44 115.43 286.47 C 115.24 302.27 115.52 318.07 115.24 333.86 C 113.32 333.79 111.41 333.74 109.49 333.69 C 109.67 317.97 109.69 302.25 109.60 286.52 Z" fill="#fdfdfd" opacity="1.00" stroke="#fdfdfd" stroke-width="0.25"/>
<path d="M 168.63 286.61 C 189.32 286.50 210.01 286.69 230.69 286.49 C 230.73 287.95 230.87 290.47 228.78 290.39 C 208.75 290.46 188.70 290.70 168.68 290.37 C 168.67 289.43 168.64 287.55 168.63 286.61 Z" fill="#060606" opacity="1.00" stroke="#060606" stroke-width="0.25"/>
<path d="M 130.52 290.98 C 130.57 289.72 130.75 288.49 130.99 287.26 C 130.59 294.49 130.94 301.75 130.89 309.00 C 130.88 349.26 130.88 389.53 130.78 429.80 C 128.58 429.79 126.38 429.78 124.18 429.77 C 124.18 385.85 124.27 341.93 124.16 298.01 C 124.15 295.60 124.17 293.18 124.31 290.77 C 124.47 337.04 124.24 383.31 124.41 429.58 C 126.43 429.54 128.44 429.50 130.45 429.46 C 130.62 383.30 130.54 337.14 130.52 290.98 Z" fill="#fdfce9" opacity="1.00" stroke="#fdfce9" stroke-width="0.25"/>
<path d="M 130.99 287.26 L 131.17 286.31 C 131.36 286.98 131.73 288.32 131.91 288.99 C 132.49 336.10 131.56 383.23 132.10 430.34 C 129.46 430.72 126.80 430.83 124.15 430.81 L 124.18 429.77 C 126.38 429.78 128.58 429.79 130.78 429.80 C 130.88 389.53 130.88 349.26 130.89 309.00 C 130.94 301.75 130.59 294.49 130.99 287.26 Z" fill="#423000" opacity="1.00" stroke="#423000" stroke-width="0.25"/>
<path d="M 284.55 290.37 C 284.52 289.09 284.51 287.82 284.51 286.54 C 304.80 286.68 325.10 286.55 345.39 286.63 C 345.77 287.85 345.77 289.13 345.69 290.41 C 325.31 290.62 304.93 290.54 284.55 290.37 Z" fill="#050305" opacity="1.00" stroke="#050305" stroke-width="0.25"/>
<path d="M 220.46 302.77 C 224.64 299.95 229.73 299.00 234.64 298.29 C 234.69 302.23 234.78 306.18 234.61 310.12 C 234.14 310.38 233.20 310.90 232.73 311.16 C 228.74 308.43 224.46 306.12 220.57 303.26 C 220.54 303.14 220.49 302.89 220.46 302.77 Z" fill="#dcbe36" opacity="1.00" stroke="#dcbe36" stroke-width="0.25"/>
<path d="M 280.52 298.27 C 285.88 299.06 291.02 300.82 296.13 302.52 C 291.07 305.72 285.99 308.91 280.76 311.84 C 280.58 307.32 280.62 302.79 280.52 298.27 Z" fill="#dcbe36" opacity="1.00" stroke="#dcbe36" stroke-width="0.25"/>
<path d="M 282.06 300.92 C 285.46 299.80 288.86 301.99 292.03 303.02 C 289.32 305.49 285.98 307.06 282.70 308.61 C 282.04 306.10 282.12 303.49 282.06 300.92 Z" fill="#fed004" opacity="1.00" stroke="#fed004" stroke-width="0.25"/>
<path d="M 223.92 303.72 C 226.09 300.98 229.92 300.64 233.17 300.59 C 233.53 303.41 233.48 306.25 233.11 309.06 C 229.94 307.47 226.90 305.63 223.92 303.72 Z" fill="#fdd004" opacity="1.00" stroke="#fdd004" stroke-width="0.25"/>
<path d="M 211.36 302.99 C 226.42 311.55 240.64 321.50 255.54 330.34 C 257.68 331.98 259.88 329.88 261.55 328.62 C 273.67 320.55 286.28 313.25 298.77 305.80 C 300.83 304.92 302.77 302.72 305.17 303.59 C 304.23 304.23 303.29 304.87 302.36 305.53 C 302.04 305.77 301.39 306.25 301.06 306.48 C 287.29 314.40 274.01 323.14 260.54 331.56 C 258.63 332.91 256.03 333.23 253.99 331.97 C 242.63 325.55 231.68 318.43 220.91 311.05 C 217.76 308.73 214.45 306.59 210.76 305.23 C 210.91 304.67 211.21 303.55 211.36 302.99 Z" fill="#fdfce9" opacity="1.00" stroke="#fdfce9" stroke-width="0.25"/>
<path d="M 302.36 305.53 C 303.29 304.87 304.23 304.23 305.17 303.59 C 305.26 318.90 305.11 334.20 305.19 349.51 L 304.02 349.59 C 303.82 335.93 304.77 322.22 303.71 308.60 C 303.59 307.46 302.83 306.53 302.36 305.53 Z" fill="#dabc44" opacity="1.00" stroke="#dabc44" stroke-width="0.25"/>
<path d="M 210.76 305.23 C 214.45 306.59 217.76 308.73 220.91 311.05 C 231.68 318.43 242.63 325.55 253.99 331.97 C 256.03 333.23 258.63 332.91 260.54 331.56 C 274.01 323.14 287.29 314.40 301.06 306.48 C 299.80 309.81 296.16 310.70 293.44 312.44 C 283.03 319.48 272.31 326.07 261.62 332.67 C 259.27 334.28 256.23 334.97 253.69 333.37 C 240.64 326.42 228.42 318.10 216.29 309.67 C 215.05 308.83 213.63 308.34 212.25 307.80 C 212.27 319.18 212.15 330.57 211.83 341.94 C 211.81 344.48 211.98 347.11 213.25 349.38 L 214.19 350.30 C 213.52 350.35 212.17 350.46 211.50 350.51 C 210.07 349.54 210.69 347.45 210.46 345.99 C 210.56 332.40 210.56 318.82 210.76 305.23 Z" fill="#dcbe36" opacity="1.00" stroke="#dcbe36" stroke-width="0.25"/>
<path d="M 301.06 306.48 C 301.39 306.25 302.04 305.77 302.36 305.53 C 302.83 306.53 303.59 307.46 303.71 308.60 C 302.30 321.94 303.88 335.40 302.96 348.76 C 295.64 349.23 288.30 349.09 280.97 348.99 C 260.63 349.08 240.30 348.96 219.96 348.97 C 217.72 349.00 215.48 349.18 213.25 349.38 C 211.98 347.11 211.81 344.48 211.83 341.94 C 212.15 330.57 212.27 319.18 212.25 307.80 C 213.63 308.34 215.05 308.83 216.29 309.67 C 228.42 318.10 240.64 326.42 253.69 333.37 C 256.23 334.97 259.27 334.28 261.62 332.67 C 272.31 326.07 283.03 319.48 293.44 312.44 C 296.16 310.70 299.80 309.81 301.06 306.48 Z" fill="#fecf03" opacity="1.00" stroke="#fecf03" stroke-width="0.25"/>
<path d="M 302.96 348.76 C 303.88 335.40 302.30 321.94 303.71 308.60 C 304.77 322.22 303.82 335.93 304.02 349.59 L 304.03 350.41 C 300.03 350.00 296.02 350.06 292.01 350.14 C 266.07 350.33 240.13 349.88 214.19 350.30 L 213.25 349.38 C 215.48 349.18 217.72 349.00 219.96 348.97 C 240.30 348.96 260.63 349.08 280.97 348.99 C 288.30 349.09 295.64 349.23 302.96 348.76 Z" fill="#fbd429" opacity="1.00" stroke="#fbd429" stroke-width="0.25"/>
<path d="M 232.73 311.16 C 233.20 310.90 234.14 310.38 234.61 310.12 C 236.06 311.37 233.15 312.94 232.73 311.16 Z" fill="#fdfce9" opacity="1.00" stroke="#fdfce9" stroke-width="0.25"/>
<path d="M 29.54 336.36 C 31.23 335.49 32.98 335.54 34.68 336.38 C 34.80 338.07 34.72 339.77 34.48 341.46 C 32.92 341.65 31.34 341.68 29.78 341.46 C 29.53 340.81 29.03 339.51 28.78 338.86 C 28.97 338.23 29.35 336.99 29.54 336.36 Z" fill="#000000" opacity="1.00" stroke="#000000" stroke-width="0.25"/>
<path d="M 478.55 338.97 C 479.17 336.10 482.23 334.79 484.69 336.49 C 484.84 338.11 484.75 339.75 484.42 341.36 C 482.89 341.48 481.36 341.52 479.83 341.44 C 479.51 340.82 478.87 339.59 478.55 338.97 Z" fill="#000000" opacity="1.00" stroke="#000000" stroke-width="0.25"/>
<path d="M 60.99 337.39 C 64.67 337.83 68.40 337.33 72.07 337.81 C 72.12 345.09 72.43 352.49 71.88 359.70 L 71.23 359.70 C 67.54 352.40 64.06 344.97 60.99 337.39 Z" fill="#fdfdfd" opacity="1.00" stroke="#fdfdfd" stroke-width="0.25"/>
<path d="M 109.61 337.66 C 111.35 337.63 113.09 337.59 114.84 337.54 C 115.81 346.81 114.89 356.20 115.30 365.52 C 113.30 365.73 111.30 365.76 109.30 365.74 C 109.40 356.38 109.32 347.02 109.61 337.66 Z" fill="#fdfdfd" opacity="1.00" stroke="#fdfdfd" stroke-width="0.25"/>
<path d="M 118.42 337.12 C 120.37 337.43 119.57 339.68 119.77 341.05 C 119.63 349.19 119.83 357.35 119.60 365.48 C 119.27 365.59 118.61 365.82 118.29 365.93 C 118.18 356.33 118.04 346.71 118.42 337.12 Z" fill="#fafafa" opacity="1.00" stroke="#fafafa" stroke-width="0.25"/>
<path d="M 395.62 337.60 C 399.98 337.45 404.35 337.68 408.72 337.54 C 408.91 346.93 408.78 356.33 408.74 365.72 C 404.33 365.68 399.91 365.80 395.51 365.61 C 395.75 356.27 395.68 346.93 395.62 337.60 Z" fill="#fcfcfc" opacity="1.00" stroke="#fcfcfc" stroke-width="0.25"/>
<path d="M 412.27 337.47 C 417.10 337.53 421.93 337.58 426.76 337.43 C 426.88 346.84 426.95 356.25 426.70 365.65 C 421.87 365.68 417.04 365.62 412.21 365.67 C 412.25 356.27 412.19 346.87 412.27 337.47 Z" fill="#fdfdfd" opacity="1.00" stroke="#fdfdfd" stroke-width="0.25"/>
<path d="M 430.23 337.49 C 432.07 337.51 433.91 337.52 435.76 337.50 C 436.32 341.64 435.71 345.80 435.91 349.96 C 435.74 355.20 436.45 360.44 435.80 365.67 C 433.90 365.64 432.00 365.61 430.11 365.58 C 429.88 356.23 430.14 346.85 430.23 337.49 Z" fill="#ffffff" opacity="1.00" stroke="#ffffff" stroke-width="0.25"/>
<path d="M 439.37 337.51 C 443.76 337.60 448.15 337.40 452.54 337.52 C 448.69 346.60 444.99 355.77 440.29 364.45 C 440.07 364.62 439.64 364.96 439.42 365.14 C 439.31 355.93 439.19 346.72 439.37 337.51 Z" fill="#fefefe" opacity="1.00" stroke="#fefefe" stroke-width="0.25"/>
<path d="M 75.36 365.62 C 75.46 356.23 75.32 346.85 75.47 337.46 C 80.06 337.60 84.65 337.67 89.24 337.57 C 89.24 346.87 89.09 356.17 89.29 365.47 C 84.66 365.89 80.00 365.68 75.36 365.62 Z" fill="#fdfdfd" opacity="1.00" stroke="#fdfdfd" stroke-width="0.25"/>
<path d="M 92.31 365.67 C 92.43 356.30 92.27 346.93 92.51 337.57 C 97.12 337.73 101.75 337.78 106.36 337.59 C 106.63 346.92 106.24 356.25 106.48 365.57 C 101.76 365.82 97.03 365.69 92.31 365.67 Z" fill="#fefefe" opacity="1.00" stroke="#fefefe" stroke-width="0.25"/>
<path d="M 211.50 350.51 C 212.17 350.46 213.52 350.35 214.19 350.30 C 240.13 349.88 266.07 350.33 292.01 350.14 C 296.02 350.06 300.03 350.00 304.03 350.41 C 302.71 350.74 301.39 351.09 300.03 351.11 C 271.69 351.11 243.34 351.05 215.00 351.11 C 213.81 351.05 212.64 350.85 211.50 350.51 Z" fill="#c4ad3f" opacity="1.00" stroke="#c4ad3f" stroke-width="0.25"/>
<path d="M 118.26 369.04 C 118.59 369.18 119.25 369.45 119.58 369.58 C 119.64 377.00 119.68 384.42 119.66 391.84 C 119.27 391.95 118.49 392.16 118.10 392.27 C 118.16 384.52 118.08 376.78 118.26 369.04 Z" fill="#fafafa" opacity="1.00" stroke="#fafafa" stroke-width="0.25"/>
<path d="M 430.17 369.40 C 432.69 369.41 435.22 369.39 437.75 369.34 C 437.65 369.80 437.47 370.72 437.38 371.18 C 435.06 374.69 432.84 378.27 430.68 381.88 C 430.10 377.74 430.21 373.56 430.17 369.40 Z" fill="#ffffff" opacity="1.00" stroke="#ffffff" stroke-width="0.25"/>
<path d="M 77.06 369.54 C 81.08 369.85 85.28 369.08 89.18 369.92 C 88.80 374.86 87.73 379.75 87.18 384.68 C 86.71 384.26 86.25 383.84 85.79 383.43 C 82.77 378.87 79.92 374.20 77.06 369.54 Z" fill="#fafafa" opacity="1.00" stroke="#fafafa" stroke-width="0.25"/>
<path d="M 89.81 388.78 C 90.42 382.35 91.63 375.96 92.57 369.57 C 99.99 369.63 107.41 369.65 114.84 369.52 C 114.86 377.06 114.74 384.60 114.77 392.14 C 114.87 394.50 116.85 396.03 118.78 397.00 C 111.23 396.94 103.65 396.80 96.08 396.82 C 94.18 393.99 91.35 391.82 89.81 388.78 Z" fill="#fcfcfc" opacity="1.00" stroke="#fcfcfc" stroke-width="0.25"/>
<path d="M 395.70 369.59 C 406.01 369.60 416.31 369.65 426.62 369.47 C 426.16 375.60 428.34 381.85 426.79 387.87 C 424.48 391.16 421.85 394.24 419.10 397.17 C 411.37 396.19 403.43 397.16 395.62 396.80 C 395.64 387.73 395.64 378.66 395.70 369.59 Z" fill="#fcfcfc" opacity="1.00" stroke="#fcfcfc" stroke-width="0.25"/>
<path d="M 168.20 390.40 C 207.13 390.39 246.06 390.34 284.99 390.39 C 305.49 390.55 326.02 390.06 346.50 390.65 C 346.90 392.39 346.14 394.85 343.96 394.48 C 285.49 394.53 227.01 394.51 168.53 394.47 C 167.69 393.19 167.69 391.79 168.20 390.40 Z" fill="#000000" opacity="1.00" stroke="#000000" stroke-width="0.25"/>
<path d="M 99.28 400.51 C 106.11 400.72 112.95 400.62 119.77 400.36 C 119.75 407.51 119.82 414.67 119.74 421.83 C 112.84 414.80 105.55 408.13 99.28 400.51 Z" fill="#fefefe" opacity="1.00" stroke="#fefefe" stroke-width="0.25"/>
<path d="M 395.59 400.68 C 402.45 400.53 409.31 400.63 416.17 400.49 C 412.36 406.05 407.34 410.62 402.80 415.57 C 400.50 417.79 398.66 420.59 395.80 422.15 C 395.33 415.02 395.86 407.83 395.59 400.68 Z" fill="#fffefe" opacity="1.00" stroke="#fffefe" stroke-width="0.25"/>
</svg>